<?xml version="1.0" encoding="UTF-8"?>
<svg version="1.1" xmlns="http://www.w3.org/2000/svg" width="235" height="212">
<path d="M0 0 C1.91002369 0.00119393 3.82004798 0.00164451 5.73007202 0.00138855 C9.70892068 0.00294407 13.68767816 0.01116805 17.66650391 0.0246582 C22.77676616 0.04176274 27.88692964 0.04546876 32.99721718 0.04471302 C36.92956491 0.04498406 40.86189089 0.05045272 44.79423141 0.05771446 C46.68017792 0.06090274 48.5661269 0.06286891 50.45207596 0.06360817 C53.07307457 0.06576352 55.69396569 0.07448669 58.31494141 0.08520508 C59.09822815 0.08475189 59.88151489 0.08429871 60.6885376 0.08383179 C66.03395152 0.11598277 66.03395152 0.11598277 67.1484375 1.23046875 C68.23412519 10.6397621 64.36595324 19.65932353 58.8359375 27.16796875 C51.96421659 35.23669911 43.54357455 40.39250806 32.86431885 41.6026001 C29.227381 41.75233479 25.60871346 41.78412291 21.96875 41.76953125 C20.62554346 41.77947293 19.28235049 41.7914271 17.93917847 41.80526733 C14.42940407 41.83736108 10.91994079 41.8479948 7.41003418 41.85211182 C1.80280378 41.86092167 -3.80417427 41.89703848 -9.41119766 41.94428635 C-11.34342083 41.95662988 -13.27571531 41.95554558 -15.20797729 41.95401001 C-32.51204911 41.88752098 -32.51204911 41.88752098 -46.62890625 50.53515625 C-59.06492939 65.6157467 -62.06265903 83.78018955 -60.25 102.79296875 C-60.11851563 103.92734375 -59.98703125 105.06171875 -59.8515625 106.23046875 C-59.71621094 107.74640625 -59.71621094 107.74640625 -59.578125 109.29296875 C-58.66701798 116.58182495 -55.88745507 120.97183478 -50.8515625 126.23046875 C-50.201875 126.92011719 -49.5521875 127.60976562 -48.8828125 128.3203125 C-35.61426023 141.21754335 -18.7022997 144.61275108 -0.85546875 144.54296875 C0.13235596 144.5275 0.13235596 144.5275 1.14013672 144.51171875 C3.17564034 144.48004546 5.2103657 144.47067261 7.24609375 144.46484375 C16.24308744 144.40640791 16.24308744 144.40640791 25.1484375 143.23046875 C26.57761493 140.37211389 26.27824559 137.91789156 26.28125 134.7265625 C26.28253906 133.42912109 26.28382813 132.13167969 26.28515625 130.79492188 C26.28306152 130.11824463 26.2809668 129.44156738 26.27880859 128.74438477 C26.27344952 126.6726146 26.27876268 124.60106036 26.28515625 122.52929688 C26.28386719 121.23314453 26.28257812 119.93699219 26.28125 118.6015625 C26.27955811 116.80609985 26.27955811 116.80609985 26.27783203 114.97436523 C26.46106543 112.31875879 26.46106543 112.31875879 25.1484375 111.23046875 C23.43069583 111.10739564 21.70801011 111.05260317 19.98608398 111.02514648 C18.88501816 111.00520126 17.78395233 110.98525604 16.64952087 110.96470642 C15.4516243 110.94799393 14.25372772 110.93128143 13.01953125 110.9140625 C11.80016373 110.8932814 10.5807962 110.87250031 9.32447815 110.85108948 C5.41169105 110.78546447 1.49883433 110.72664903 -2.4140625 110.66796875 C-5.05925212 110.62479584 -7.70443459 110.58118197 -10.34960938 110.53710938 C-16.85018586 110.42976995 -23.35083229 110.32802808 -29.8515625 110.23046875 C-30.75855506 106.22654087 -30.75007124 103.76207984 -29.6015625 99.79296875 C-29.34890625 98.88675781 -29.09625 97.98054688 -28.8359375 97.046875 C-25.55070609 87.64746292 -19.50478401 79.73040691 -10.5390625 75.16796875 C-4.72577365 72.53747895 0.36714011 72.06104099 6.71875 72.02734375 C7.97315384 72.01879364 7.97315384 72.01879364 9.25289917 72.0100708 C11.02307883 72.0006349 12.79327595 71.99409242 14.56347656 71.99023438 C17.24316023 71.98057786 19.92206028 71.949562 22.6015625 71.91796875 C36.7193032 71.82981945 47.98598725 73.31582517 58.6484375 83.35546875 C61.1484375 86.23046875 61.1484375 86.23046875 61.1484375 89.23046875 C61.8084375 89.23046875 62.4684375 89.23046875 63.1484375 89.23046875 C67.21552875 98.07197148 67.33086491 106.13982703 67.3359375 115.79296875 C67.34818359 116.99244141 67.36042969 118.19191406 67.37304688 119.42773438 C67.40295493 137.90094253 63.99773925 155.26834776 50.8359375 168.98046875 C34.85326009 184.01053625 15.96290017 185.76690231 -5.13720703 185.32373047 C-34.2895137 184.32209518 -58.65244558 174.92911225 -79.0234375 153.47265625 C-93.73398969 137.17528059 -101.27753406 115.7777784 -101.1640625 94.04296875 C-101.15987305 92.94525146 -101.15568359 91.84753418 -101.15136719 90.71655273 C-100.98237325 78.51393202 -99.08148625 67.34405672 -93.8515625 56.23046875 C-93.34625 55.11800781 -92.8409375 54.00554687 -92.3203125 52.859375 C-87.69317206 42.95519975 -81.79687414 34.77851481 -73.8515625 27.23046875 C-73.29210937 26.6271875 -72.73265625 26.02390625 -72.15625 25.40234375 C-52.96824721 5.04907763 -26.66533233 -0.11036315 0 0 Z " fill="#5050B8" transform="translate(120.8515625,17.76953125)"/>
<path d="M0 0 C1.91002369 0.00119393 3.82004798 0.00164451 5.73007202 0.00138855 C9.70892068 0.00294407 13.68767816 0.01116805 17.66650391 0.0246582 C22.77676616 0.04176274 27.88692964 0.04546876 32.99721718 0.04471302 C36.92956491 0.04498406 40.86189089 0.05045272 44.79423141 0.05771446 C46.68017792 0.06090274 48.5661269 0.06286891 50.45207596 0.06360817 C53.07307457 0.06576352 55.69396569 0.07448669 58.31494141 0.08520508 C59.09822815 0.08475189 59.88151489 0.08429871 60.6885376 0.08383179 C66.03395152 0.11598277 66.03395152 0.11598277 67.1484375 1.23046875 C68.23412519 10.6397621 64.36595324 19.65932353 58.8359375 27.16796875 C51.96421659 35.23669911 43.54357455 40.39250806 32.86431885 41.6026001 C29.227381 41.75233479 25.60871346 41.78412291 21.96875 41.76953125 C20.62554346 41.77947293 19.28235049 41.7914271 17.93917847 41.80526733 C14.42940407 41.83736108 10.91994079 41.8479948 7.41003418 41.85211182 C1.80280378 41.86092167 -3.80417427 41.89703848 -9.41119766 41.94428635 C-11.34342083 41.95662988 -13.27571531 41.95554558 -15.20797729 41.95401001 C-32.51204911 41.88752098 -32.51204911 41.88752098 -46.62890625 50.53515625 C-52.50767568 57.66406821 -56.34300673 65.37674251 -58.8515625 74.23046875 C-59.8415625 73.73546875 -59.8415625 73.73546875 -60.8515625 73.23046875 C-59.9765625 67.48046875 -59.9765625 67.48046875 -58.8515625 65.23046875 C-61.1615625 66.22046875 -63.4715625 67.21046875 -65.8515625 68.23046875 C-65.86574219 69.27847656 -65.87992188 70.32648438 -65.89453125 71.40625 C-65.94143432 72.78520017 -65.98968171 74.16410508 -66.0390625 75.54296875 C-66.04486328 76.23326172 -66.05066406 76.92355469 -66.05664062 77.63476562 C-66.14453125 79.65625 -66.14453125 79.65625 -66.8515625 83.23046875 C-69.37109375 84.87109375 -69.37109375 84.87109375 -71.8515625 86.23046875 C-72.56808275 88.81917577 -72.56808275 88.81917577 -72.3515625 91.66796875 C-72.34125 92.61542969 -72.3309375 93.56289062 -72.3203125 94.5390625 C-71.79210368 97.57186148 -70.72614907 98.85331206 -68.8515625 101.23046875 C-69.07193878 104.90340671 -69.22122796 106.60013421 -71.8515625 109.23046875 C-76.18799851 109.54584591 -78.17809479 109.67944722 -81.8515625 107.23046875 C-81.7647349 109.35624782 -81.6565674 111.48116456 -81.5390625 113.60546875 C-81.48105469 114.78882813 -81.42304687 115.9721875 -81.36328125 117.19140625 C-81.19441406 118.19429688 -81.02554688 119.1971875 -80.8515625 120.23046875 C-79.3665625 121.22046875 -79.3665625 121.22046875 -77.8515625 122.23046875 C-77.30260121 125.83792869 -77.39910764 127.56918857 -79.4765625 130.60546875 C-82.54527374 132.70511328 -84.20548961 132.8510769 -87.8515625 132.23046875 C-89.7265625 130.23046875 -89.7265625 130.23046875 -90.8515625 128.23046875 C-89.55001244 132.31011156 -89.55001244 132.31011156 -87.8515625 136.23046875 C-88.8415625 136.23046875 -89.8315625 136.23046875 -90.8515625 136.23046875 C-97.47848738 122.217011 -101.24551701 109.64510128 -101.1640625 94.04296875 C-101.15987305 92.94525146 -101.15568359 91.84753418 -101.15136719 90.71655273 C-100.98237325 78.51393202 -99.08148625 67.34405672 -93.8515625 56.23046875 C-93.34625 55.11800781 -92.8409375 54.00554687 -92.3203125 52.859375 C-87.69317206 42.95519975 -81.79687414 34.77851481 -73.8515625 27.23046875 C-73.29210937 26.6271875 -72.73265625 26.02390625 -72.15625 25.40234375 C-52.96824721 5.04907763 -26.66533233 -0.11036315 0 0 Z " fill="#116C75" transform="translate(120.8515625,17.76953125)"/>
<path d="M0 0 C1.91002369 0.00119393 3.82004798 0.00164451 5.73007202 0.00138855 C9.70892068 0.00294407 13.68767816 0.01116805 17.66650391 0.0246582 C22.77676616 0.04176274 27.88692964 0.04546876 32.99721718 0.04471302 C36.92956491 0.04498406 40.86189089 0.05045272 44.79423141 0.05771446 C46.68017792 0.06090274 48.5661269 0.06286891 50.45207596 0.06360817 C53.07307457 0.06576352 55.69396569 0.07448669 58.31494141 0.08520508 C59.48987152 0.0845253 59.48987152 0.0845253 60.6885376 0.08383179 C66.03395152 0.11598277 66.03395152 0.11598277 67.1484375 1.23046875 C68.23412519 10.6397621 64.36595324 19.65932353 58.8359375 27.16796875 C51.96421659 35.23669911 43.54357455 40.39250806 32.86431885 41.6026001 C29.227381 41.75233479 25.60871346 41.78412291 21.96875 41.76953125 C20.62554346 41.77947293 19.28235049 41.7914271 17.93917847 41.80526733 C14.42940407 41.83736108 10.91994079 41.8479948 7.41003418 41.85211182 C1.80280378 41.86092167 -3.80417427 41.89703848 -9.41119766 41.94428635 C-11.34342083 41.95662988 -13.27571531 41.95554558 -15.20797729 41.95401001 C-28.37534786 41.75933316 -28.37534786 41.75933316 -40.8515625 45.23046875 C-40.8515625 44.57046875 -40.8515625 43.91046875 -40.8515625 43.23046875 C-41.72893066 43.51096069 -41.72893066 43.51096069 -42.62402344 43.79711914 C-45.2799716 44.63967945 -47.94058035 45.46645157 -50.6015625 46.29296875 C-51.52195312 46.58751953 -52.44234375 46.88207031 -53.390625 47.18554688 C-54.28007813 47.45947266 -55.16953125 47.73339844 -56.0859375 48.015625 C-56.90288086 48.272229 -57.71982422 48.52883301 -58.56152344 48.79321289 C-61.03024321 49.26458572 -62.4934679 49.02833811 -64.8515625 48.23046875 C-63.8515625 46.23046875 -63.8515625 46.23046875 -62.1809082 45.46850586 C-61.47023193 45.23397705 -60.75955566 44.99944824 -60.02734375 44.7578125 C-59.24552734 44.49806641 -58.46371094 44.23832031 -57.65820312 43.97070312 C-56.83513672 43.70580078 -56.01207031 43.44089844 -55.1640625 43.16796875 C-54.36033203 42.89919922 -53.55660156 42.63042969 -52.72851562 42.35351562 C-45.79039558 40.07862917 -39.39673654 39.07619871 -32.07421875 39.09765625 C-31.34464462 39.09669952 -30.6150705 39.0957428 -29.86338806 39.09475708 C-28.32795118 39.09407986 -26.79251137 39.09590205 -25.25708008 39.10009766 C-22.92457553 39.10544465 -20.59226419 39.10014108 -18.25976562 39.09375 C-16.76041625 39.09441101 -15.26106699 39.09569266 -13.76171875 39.09765625 C-13.07296158 39.09563202 -12.38420441 39.09360779 -11.67457581 39.09152222 C-7.29277633 39.11242402 -3.1625662 39.52521642 1.1484375 40.23046875 C0.8184375 39.24046875 0.4884375 38.25046875 0.1484375 37.23046875 C1.8190625 37.29234375 1.8190625 37.29234375 3.5234375 37.35546875 C7.19209775 37.64168734 7.19209775 37.64168734 9.1484375 35.23046875 C9.49334072 31.17785588 9.45007632 29.68292699 7.1484375 26.23046875 C11.08579873 26.14350698 15.02291378 26.0900904 18.9609375 26.04296875 C20.08048828 26.01783203 21.20003906 25.99269531 22.35351562 25.96679688 C23.42666016 25.95712891 24.49980469 25.94746094 25.60546875 25.9375 C26.59522705 25.92178955 27.58498535 25.9060791 28.60473633 25.88989258 C31.59044471 26.2896491 32.20014728 27.05018027 34.1484375 29.23046875 C37.19074573 29.73057399 37.19074573 29.73057399 40.1484375 29.23046875 C42.51536716 26.38220277 42.51536716 26.38220277 41.7734375 23.04296875 C41.5671875 22.11484375 41.3609375 21.18671875 41.1484375 20.23046875 C37.79385595 19.46524074 37.79385595 19.46524074 34.1484375 19.23046875 C33.13772149 20.21963666 32.13801276 21.22015157 31.1484375 22.23046875 C28.12287082 22.54047939 25.29904086 22.667902 22.27075195 22.6628418 C20.90947174 22.67812927 20.90947174 22.67812927 19.52069092 22.69372559 C16.51763814 22.72394708 13.51490385 22.73313553 10.51171875 22.7421875 C8.4309126 22.75902739 6.35011666 22.77717669 4.26933289 22.79658508 C-1.21002002 22.84416605 -6.68933152 22.87392306 -12.16882324 22.90002441 C-17.75911642 22.9297891 -23.34926679 22.97633344 -28.93945312 23.02148438 C-39.91008168 23.10760962 -50.88073955 23.17491388 -61.8515625 23.23046875 C-61.27811313 20.36322189 -60.990111 19.36901725 -58.8515625 17.23046875 C-56.03192139 17.03033447 -56.03192139 17.03033447 -52.38574219 17.09863281 C-51.39026619 17.11265137 -51.39026619 17.11265137 -50.37467957 17.12695312 C-48.93137883 17.14797747 -47.48813597 17.1733093 -46.04497528 17.20240021 C-43.75802108 17.24639029 -41.47139714 17.27458367 -39.18414307 17.29779053 C-32.68040659 17.36502201 -26.17721384 17.44795982 -19.67431641 17.57324219 C-15.69739427 17.64872536 -11.72103973 17.69464165 -7.74350739 17.72185516 C-6.2299546 17.73792757 -4.71647628 17.76509593 -3.20333099 17.80371857 C4.85756638 18.35118193 4.85756638 18.35118193 12.22286987 15.88136292 C13.59240672 14.3846919 14.87608257 12.81058527 16.1484375 11.23046875 C19.24462891 10.53686523 19.24462891 10.53686523 22.5 10.6015625 C24.27117187 10.59672852 24.27117187 10.59672852 26.078125 10.59179688 C27.90730469 10.62950195 27.90730469 10.62950195 29.7734375 10.66796875 C32.20283864 10.71007497 34.63273727 10.73055008 37.0625 10.7265625 C38.6705249 10.76027954 38.6705249 10.76027954 40.31103516 10.79467773 C43.38607535 10.46876039 43.38607535 10.46876039 45.52880859 7.69946289 C46.06328613 6.88469482 46.59776367 6.06992676 47.1484375 5.23046875 C46.45169922 5.71854004 45.75496094 6.20661133 45.03710938 6.70947266 C41.70393591 8.46451582 39.67268103 8.58607664 35.9296875 8.56640625 C34.16044922 8.58574219 34.16044922 8.58574219 32.35546875 8.60546875 C29.88410223 8.60546875 27.41272337 8.59765602 24.94140625 8.58203125 C23.17216797 8.60523438 23.17216797 8.60523438 21.3671875 8.62890625 C20.29404297 8.62552246 19.22089844 8.62213867 18.11523438 8.61865234 C14.93962321 8.94611532 14.93962321 8.94611532 13.12426758 11.73754883 C8.18208253 15.87772862 2.54481875 14.84158821 -3.68359375 14.71875 C-5.0440694 14.70941687 -6.40456192 14.70230311 -7.76506042 14.6973114 C-11.33457367 14.67828006 -14.90305903 14.62921555 -18.47216797 14.5737915 C-22.11867367 14.52251379 -25.76534655 14.49977937 -29.41210938 14.47460938 C-36.5590126 14.42109088 -43.70522021 14.33582693 -50.8515625 14.23046875 C-50.8515625 13.24046875 -50.8515625 12.25046875 -50.8515625 11.23046875 C-49.8615625 10.90046875 -48.8715625 10.57046875 -47.8515625 10.23046875 C-47.8515625 9.57046875 -47.8515625 8.91046875 -47.8515625 8.23046875 C-45.25109089 7.26100806 -42.64682915 6.30495195 -40.0390625 5.35546875 C-38.96108398 4.95134766 -38.96108398 4.95134766 -37.86132812 4.5390625 C-25.33142718 0.01284277 -13.15294522 -0.05443774 0 0 Z " fill="#32CBC7" transform="translate(120.8515625,17.76953125)"/>
<path d="M0 0 C1.25440384 -0.00855011 1.25440384 -0.00855011 2.53414917 -0.01727295 C4.30432883 -0.02670885 6.07452595 -0.03325133 7.84472656 -0.03710938 C10.52441023 -0.04676589 13.20331028 -0.07778175 15.8828125 -0.109375 C30.0005532 -0.1975243 41.26723725 1.28848142 51.9296875 11.328125 C54.4296875 14.203125 54.4296875 14.203125 54.4296875 17.203125 C55.0896875 17.203125 55.7496875 17.203125 56.4296875 17.203125 C60.31332386 25.29403409 60.31332386 25.29403409 59.4296875 30.203125 C56.36986499 36.12298779 52.58379804 40.09571758 47.4296875 44.203125 C47.46191406 42.93597656 47.49414062 41.66882813 47.52734375 40.36328125 C47.73919831 30.7689893 47.73919831 30.7689893 44.46484375 22.0078125 C40.0509598 17.67262016 35.91337985 14.0092896 29.578125 13.82421875 C28.64484375 13.79005859 27.7115625 13.75589844 26.75 13.72070312 C25.77804688 13.69427734 24.80609375 13.66785156 23.8046875 13.640625 C21.87486787 13.58095295 19.94516389 13.51736728 18.015625 13.44921875 C16.73244385 13.41332642 16.73244385 13.41332642 15.42333984 13.37670898 C13.4296875 13.203125 13.4296875 13.203125 12.4296875 12.203125 C9.09931303 11.95844443 5.76995036 11.81885495 2.43359375 11.6796875 C1.44230469 11.52242187 0.45101562 11.36515625 -0.5703125 11.203125 C-1.2303125 10.213125 -1.8903125 9.223125 -2.5703125 8.203125 C-3.5603125 8.533125 -4.5503125 8.863125 -5.5703125 9.203125 C-5.2196875 9.821875 -4.8690625 10.440625 -4.5078125 11.078125 C-4.1984375 11.779375 -3.8890625 12.480625 -3.5703125 13.203125 C-3.9003125 13.863125 -4.2303125 14.523125 -4.5703125 15.203125 C-7.5403125 14.708125 -7.5403125 14.708125 -10.5703125 14.203125 C-10.5703125 14.863125 -10.5703125 15.523125 -10.5703125 16.203125 C-7.71953159 16.97029351 -7.71953159 16.97029351 -4.5703125 17.203125 C-4.13976562 16.72101563 -3.70921875 16.23890625 -3.265625 15.7421875 C-0.72238136 13.43334419 1.37397226 13.8401212 4.7421875 13.890625 C6.40701172 13.89642578 6.40701172 13.89642578 8.10546875 13.90234375 C11.4296875 14.203125 11.4296875 14.203125 14.36328125 15.22265625 C17.43368811 16.20440418 19.93853581 16.29272101 23.140625 16.22192383 C29.5418103 16.16290907 34.31163656 16.84075773 39.4296875 21.015625 C45.10789619 27.50093694 44.28558499 35.04651691 43.78125 43.1796875 C43.6709517 44.52141748 43.55649619 45.86285465 43.4296875 47.203125 C42.1096875 47.533125 40.7896875 47.863125 39.4296875 48.203125 C39.4503125 46.924375 39.4709375 45.645625 39.4921875 44.328125 C39.47341434 42.61976778 39.45246495 40.91143352 39.4296875 39.203125 C39.45869141 37.94435547 39.45869141 37.94435547 39.48828125 36.66015625 C39.37087454 31.61166758 38.4374405 28.4888297 35.10546875 24.62109375 C29.99825276 20.09489051 25.1805258 20.17018614 18.6171875 20.515625 C17.58142578 20.52658203 16.54566406 20.53753906 15.47851562 20.54882812 C9.2106785 20.61626537 9.2106785 20.61626537 4.4296875 24.203125 C3.1096875 24.203125 1.7896875 24.203125 0.4296875 24.203125 C0.4296875 24.863125 0.4296875 25.523125 0.4296875 26.203125 C3.40034259 25.86084928 3.40034259 25.86084928 6.4296875 25.203125 C6.7596875 24.543125 7.0896875 23.883125 7.4296875 23.203125 C10.99156407 23.02832547 14.55233523 22.92211357 18.1171875 22.828125 C19.62829102 22.75271484 19.62829102 22.75271484 21.16992188 22.67578125 C28.47241513 22.53117742 28.47241513 22.53117742 31.25463867 24.48413086 C33.23918919 26.7721145 34.45058873 28.42977955 34.3671875 31.515625 C33.4296875 33.203125 33.4296875 33.203125 31.4296875 34.203125 C30.8728125 33.23375 30.3159375 32.264375 29.7421875 31.265625 C27.65195917 28.66811903 26.54555761 28.22542929 23.203125 27.58203125 C19.9378206 27.35082778 16.70278069 27.21270946 13.4296875 27.203125 C13.4296875 28.523125 13.4296875 29.843125 13.4296875 31.203125 C17.3896875 31.203125 21.3496875 31.203125 25.4296875 31.203125 C26.4196875 33.183125 26.4196875 33.183125 27.4296875 35.203125 C25.7796875 37.513125 24.1296875 39.823125 22.4296875 42.203125 C22.0996875 41.543125 21.7696875 40.883125 21.4296875 40.203125 C18.38331451 39.18766734 16.23191652 39.0489273 13.0402832 38.99780273 C11.93936844 38.97785751 10.83845367 38.95791229 9.70417786 38.93736267 C7.92281685 38.91229393 7.92281685 38.91229393 6.10546875 38.88671875 C4.88893112 38.86593765 3.67239349 38.84515656 2.41899109 38.82374573 C-1.47321846 38.75827783 -5.36549635 38.69937785 -9.2578125 38.640625 C-11.89388732 38.59743718 -14.52995519 38.5538228 -17.16601562 38.50976562 C-23.63404201 38.40259922 -30.10213661 38.30082755 -36.5703125 38.203125 C-37.47730506 34.19919712 -37.46882124 31.73473609 -36.3203125 27.765625 C-36.06765625 26.85941406 -35.815 25.95320313 -35.5546875 25.01953125 C-32.26945609 15.62011917 -26.22353401 7.70306316 -17.2578125 3.140625 C-11.44452365 0.5101352 -6.35160989 0.03369724 0 0 Z " fill="#7845AC" transform="translate(127.5703125,89.796875)"/>
<path d="M0 0 C-0.165 1.134375 -0.33 2.26875 -0.5 3.4375 C-0.96143351 7.11615049 -1.02627257 10.65811169 -0.95703125 14.359375 C-1 17 -1 17 -1.32421875 20.203125 C-2.51942756 32.07810285 -2.14802488 45.98457559 3 57 C2.34 57 1.68 57 1 57 C5.54669031 73.2413024 11.10394212 88.6322019 23 101 C23.68578125 101.72574219 24.3715625 102.45148438 25.078125 103.19921875 C30.41844057 108.39119222 36.28712768 111.42861101 42.9609375 114.5546875 C46 116 46 116 49 118 C36.65307185 121.95101701 19.55311249 115.81668344 8.4375 110.25 C-7.26259914 101.97300934 -22.77653896 89.05993569 -31 73 C-31 71.68 -31 70.36 -31 69 C-31.61998741 66.98504093 -32.27954236 64.9812585 -33 63 C-32.01 62.505 -32.01 62.505 -31 62 C-30.34 63.32 -29.68 64.64 -29 66 C-24.89767788 66.34848179 -24.89767788 66.34848179 -21.1875 64.875 C-19.57771731 62.33323785 -19.32890991 59.9601892 -19 57 C-20.32 56.34 -21.64 55.68 -23 55 C-23 50.71 -23 46.42 -23 42 C-22.01 42.33 -21.02 42.66 -20 43 C-16.45812169 43.33338596 -16.45812169 43.33338596 -13 43 C-10.66703749 40.17282787 -10.66703749 40.17282787 -11.25 36.9375 C-11.7593244 33.900541 -11.7593244 33.900541 -14 32 C-14.37109375 29.50390625 -14.37109375 29.50390625 -14.4375 26.5625 C-14.47746094 25.59441406 -14.51742187 24.62632813 -14.55859375 23.62890625 C-14.37425781 22.76136719 -14.18992187 21.89382812 -14 21 C-13.17628906 20.54496094 -12.35257813 20.08992188 -11.50390625 19.62109375 C-10.67761719 19.08613281 -9.85132812 18.55117187 -9 18 C-8.59099143 15.32941466 -8.43414539 13.15951322 -8.5 10.5 C-8.56585461 7.84048678 -8.40900857 5.67058534 -8 3 C-5.14198136 0.59926434 -3.73673699 0 0 0 Z " fill="#7D49C1" transform="translate(62,83)"/>
<path d="M0 0 C-1.31709276 2.99223016 -2.62433132 4.67967895 -5.125 6.75 C-10.4436404 11.84563661 -13.13424835 18.70043046 -16.19775391 25.28271484 C-17.09657906 27.2067368 -18.03664091 29.10751286 -19 31 C-20.0326802 28.21176345 -20.04509293 27.1322726 -19.0625 24.25 C-18.5365625 23.13625 -18.5365625 23.13625 -18 22 C-20.31 22.99 -22.62 23.98 -25 25 C-25.01417969 26.04800781 -25.02835938 27.09601563 -25.04296875 28.17578125 C-25.08987182 29.55473142 -25.13811921 30.93363633 -25.1875 32.3125 C-25.19330078 33.00279297 -25.19910156 33.69308594 -25.20507812 34.40429688 C-25.29296875 36.42578125 -25.29296875 36.42578125 -26 40 C-28.51953125 41.640625 -28.51953125 41.640625 -31 43 C-31.71652025 45.58870702 -31.71652025 45.58870702 -31.5 48.4375 C-31.4896875 49.38496094 -31.479375 50.33242187 -31.46875 51.30859375 C-30.94054118 54.34139273 -29.87458657 55.62284331 -28 58 C-28.22037628 61.67293796 -28.36966546 63.36966546 -31 66 C-35.33643601 66.31537716 -37.32653229 66.44897847 -41 64 C-40.9131724 66.12577907 -40.8050049 68.25069581 -40.6875 70.375 C-40.62949219 71.55835938 -40.57148437 72.74171875 -40.51171875 73.9609375 C-40.34285156 74.96382813 -40.17398438 75.96671875 -40 77 C-38.515 77.99 -38.515 77.99 -37 79 C-36.45103871 82.60745994 -36.54754514 84.33871982 -38.625 87.375 C-41.69371124 89.47464453 -43.35392711 89.62060815 -47 89 C-48.875 87 -48.875 87 -50 85 C-48.69844994 89.07964281 -48.69844994 89.07964281 -47 93 C-47.99 93 -48.98 93 -50 93 C-54.5970285 83.27901088 -58.5975529 73.72799742 -60 63 C-60.15597656 61.83726563 -60.31195313 60.67453125 -60.47265625 59.4765625 C-61.47943384 45.26823644 -54.93003941 33.59082848 -46.02294922 22.81176758 C-35.56820092 11.07454467 -16.20196072 0 0 0 Z " fill="#3D1F6D" transform="translate(80,61)"/>
<path d="M0 0 C1.9375 0.6875 1.9375 0.6875 2.9375 2.6875 C5.95061815 3.11901972 5.95061815 3.11901972 9.4375 3.25 C15.84105913 3.59105913 15.84105913 3.59105913 16.9375 4.6875 C18.38331802 4.73550018 19.83119686 4.72428228 21.27734375 4.6875 C38.14848436 4.5993286 38.14848436 4.5993286 44.0625 10.0625 C45.39900765 11.56545915 46.69809799 13.10351088 47.9375 14.6875 C48.45787842 15.14116943 48.97825684 15.59483887 49.5144043 16.06225586 C51.30511649 18.10733581 51.35387844 19.22937194 51.44921875 21.91796875 C51.48466797 22.72041016 51.52011719 23.52285156 51.55664062 24.34960938 C51.59047852 25.59967773 51.59047852 25.59967773 51.625 26.875 C51.65916016 27.71998047 51.69332031 28.56496094 51.72851562 29.43554688 C51.81091471 31.51906649 51.87588645 33.60326216 51.9375 35.6875 C55.71313611 31.51878397 59.05946879 27.53471046 61.9375 22.6875 C62.5975 22.6875 63.2575 22.6875 63.9375 22.6875 C63.9375 25.3275 63.9375 27.9675 63.9375 30.6875 C63.2775 30.6875 62.6175 30.6875 61.9375 30.6875 C61.82535156 31.39261719 61.71320313 32.09773438 61.59765625 32.82421875 C59.21608962 43.15373555 53.11301306 51.67707066 44.296875 57.40234375 C37.5937186 61.23138142 30.75689115 64.6875 22.9375 64.6875 C23.2675 54.1275 23.5975 43.5675 23.9375 32.6875 C25.2575 32.0275 26.5775 31.3675 27.9375 30.6875 C29.3137794 28.76985826 29.3137794 28.76985826 29.9375 26.6875 C29.4425 25.6975 29.4425 25.6975 28.9375 24.6875 C26.1215151 24.21851037 26.1215151 24.21851037 22.875 24.0625 C21.77027344 23.98773438 20.66554687 23.91296875 19.52734375 23.8359375 C18.67269531 23.78695312 17.81804687 23.73796875 16.9375 23.6875 C16.9375 22.3675 16.9375 21.0475 16.9375 19.6875 C28.42270179 18.76732063 28.42270179 18.76732063 32.13671875 21.0234375 C33.75 22.6875 33.75 22.6875 35.9375 25.6875 C36.61518172 23.80063998 36.61518172 23.80063998 36.9375 21.6875 C35.04163616 19.54160577 35.04163616 19.54160577 32.9375 17.6875 C32.9375 17.0275 32.9375 16.3675 32.9375 15.6875 C25.6775 15.6875 18.4175 15.6875 10.9375 15.6875 C10.6075 16.6775 10.2775 17.6675 9.9375 18.6875 C7.9575 18.6875 5.9775 18.6875 3.9375 18.6875 C3.9375 18.0275 3.9375 17.3675 3.9375 16.6875 C4.72125 16.39875 5.505 16.11 6.3125 15.8125 C9.03421632 14.83837746 9.03421632 14.83837746 10.9375 12.6875 C19.29824327 11.27901273 29.49870209 10.99465468 37.4609375 14.03125 C40.98900747 16.90851095 42.61476506 19.41381784 43.26269531 23.97851562 C43.66640954 29.5873368 43.39871716 35.09025971 42.9375 40.6875 C44.9175 40.1925 44.9175 40.1925 46.9375 39.6875 C47.75802461 25.99000361 47.75802461 25.99000361 42.375 14 C37.0227471 9.6975459 31.29624977 9.69228211 24.70703125 9.78515625 C20.95305557 9.68790299 18.44503348 8.92189093 14.9375 7.6875 C12.65297193 7.41169137 10.35931617 7.2031214 8.0625 7.0625 C6.91007813 6.98773438 5.75765625 6.91296875 4.5703125 6.8359375 C3.26707031 6.76246094 3.26707031 6.76246094 1.9375 6.6875 C1.6075 7.6775 1.2775 8.6675 0.9375 9.6875 C-1.875 10.3125 -1.875 10.3125 -5.0625 10.6875 C-6.0525 10.0275 -7.0425 9.3675 -8.0625 8.6875 C-7.4025 7.3675 -6.7425 6.0475 -6.0625 4.6875 C-5.7325 5.3475 -5.4025 6.0075 -5.0625 6.6875 C-3.03786745 7.33963292 -3.03786745 7.33963292 -1.0625 7.6875 C-1.63702746 3.75674356 -1.63702746 3.75674356 -4.0625 0.6875 C-2.0625 -0.3125 -2.0625 -0.3125 0 0 Z " fill="#210A40" transform="translate(124.0625,97.3125)"/>
<path d="M0 0 C1.13862991 0.0028299 2.27725983 0.00565979 3.45039368 0.00857544 C7.04646832 0.01966857 10.64228334 0.04475253 14.23828125 0.0703125 C16.69335575 0.08035635 19.1484342 0.08947973 21.60351562 0.09765625 C27.58602437 0.11957218 33.56838425 0.15293969 39.55078125 0.1953125 C39.55078125 0.5253125 39.55078125 0.8553125 39.55078125 1.1953125 C46.48078125 1.6903125 46.48078125 1.6903125 53.55078125 2.1953125 C53.55078125 2.8553125 53.55078125 3.5153125 53.55078125 4.1953125 C54.33453125 4.2984375 55.11828125 4.4015625 55.92578125 4.5078125 C58.55078125 5.1953125 58.55078125 5.1953125 60.55078125 8.1953125 C60.36328125 11.2578125 60.36328125 11.2578125 59.55078125 14.1953125 C56.55078125 16.1953125 56.55078125 16.1953125 53.36328125 15.8203125 C52.43515625 15.6140625 51.50703125 15.4078125 50.55078125 15.1953125 C50.05578125 13.7103125 50.05578125 13.7103125 49.55078125 12.1953125 C40.97078125 12.1953125 32.39078125 12.1953125 23.55078125 12.1953125 C23.55078125 11.8653125 23.55078125 11.5353125 23.55078125 11.1953125 C24.34774414 11.19120361 25.14470703 11.18709473 25.96582031 11.18286133 C29.57822748 11.14995905 33.18894064 11.07931594 36.80078125 11.0078125 C38.05503906 11.00201172 39.30929688 10.99621094 40.6015625 10.99023438 C42.40947266 10.94672852 42.40947266 10.94672852 44.25390625 10.90234375 C45.91921387 10.87877808 45.91921387 10.87877808 47.61816406 10.85473633 C51.42145217 9.99953477 52.46218933 8.38819186 54.55078125 5.1953125 C53.85404297 5.68338379 53.15730469 6.17145508 52.43945312 6.67431641 C49.10627966 8.42935957 47.07502478 8.55092039 43.33203125 8.53125 C41.56279297 8.55058594 41.56279297 8.55058594 39.7578125 8.5703125 C37.28644598 8.5703125 34.81506712 8.56249977 32.34375 8.546875 C30.57451172 8.57007813 30.57451172 8.57007813 28.76953125 8.59375 C27.69638672 8.59036621 26.62324219 8.58698242 25.51757812 8.58349609 C22.34196696 8.91095907 22.34196696 8.91095907 20.52661133 11.70239258 C15.58442628 15.84257237 9.9471625 14.80643196 3.71875 14.68359375 C2.35827435 14.67426062 0.99778183 14.66714686 -0.36271667 14.66215515 C-3.93222992 14.64312381 -7.50071528 14.5940593 -11.06982422 14.53863525 C-14.71632992 14.48735754 -18.3630028 14.46462312 -22.00976562 14.43945312 C-29.15666885 14.38593463 -36.30287646 14.30067068 -43.44921875 14.1953125 C-43.44921875 13.2053125 -43.44921875 12.2153125 -43.44921875 11.1953125 C-42.45921875 10.8653125 -41.46921875 10.5353125 -40.44921875 10.1953125 C-40.44921875 9.5353125 -40.44921875 8.8753125 -40.44921875 8.1953125 C-37.84874714 7.22585181 -35.2444854 6.2697957 -32.63671875 5.3203125 C-31.91806641 5.05089844 -31.19941406 4.78148437 -30.45898438 4.50390625 C-20.39823608 0.86962713 -10.64829098 -0.1017133 0 0 Z " fill="#2AAFAE" transform="translate(113.44921875,17.8046875)"/>
<path d="M0 0 C0.99 0 1.98 0 3 0 C2.67 0.99 2.34 1.98 2 3 C1.34 3 0.68 3 0 3 C-0.33 3.99 -0.66 4.98 -1 6 C-2.17973389 5.99830811 -2.17973389 5.99830811 -3.38330078 5.99658203 C-6.96472877 6.00872604 -10.54404299 6.06641584 -14.125 6.125 C-15.3625 6.12242188 -16.6 6.11984375 -17.875 6.1171875 C-19.07382813 6.14296875 -20.27265625 6.16875 -21.5078125 6.1953125 C-22.60754395 6.20578613 -23.70727539 6.21625977 -24.84033203 6.22705078 C-28.28637198 6.73089104 -28.28637198 6.73089104 -30.42578125 10.01367188 C-32.67490151 12.47068055 -33.84248919 12.97366907 -37.18942261 13.53317261 C-41.3653118 13.69469722 -45.50329986 13.6751898 -49.6796875 13.5859375 C-51.21809226 13.57473666 -52.75651852 13.56620066 -54.29495239 13.56021118 C-58.32983245 13.5373818 -62.36340148 13.47851252 -66.39776611 13.4119873 C-70.52020535 13.35043562 -74.64285798 13.32316888 -78.765625 13.29296875 C-86.84434939 13.22876081 -94.92201128 13.12645604 -103 13 C-103.66 14.32 -104.32 15.64 -105 17 C-104.39215668 16.99777939 -103.78431335 16.99555878 -103.15805054 16.99327087 C-96.7652038 16.97094797 -90.37236835 16.95598217 -83.97949219 16.94506836 C-81.60155792 16.94007541 -79.22362666 16.93327872 -76.84570312 16.92456055 C-51.49671609 16.83402845 -51.49671609 16.83402845 -40 18 C-40 18.66 -40 19.32 -40 20 C-41.12156494 20.02505615 -42.24312988 20.0501123 -43.39868164 20.07592773 C-53.33359116 20.30002344 -63.26772096 20.54402723 -73.20161438 20.80949402 C-78.27554581 20.94175269 -83.34644603 21.03459645 -88.421875 21.078125 C-97.94167678 21.21762309 -105.44849142 21.4112043 -113.6953125 26.625 C-116 28 -116 28 -118.59765625 28.49609375 C-121.42709324 29.08958541 -122.38559191 29.95634465 -124.3125 32.0625 C-125.6428125 33.5165625 -125.6428125 33.5165625 -127 35 C-117.54087533 36.32759644 -110.84345748 31.73208595 -103 27 C-102.505 26.505 -102.505 26.505 -102 26 C-100.64905018 25.90731001 -99.29332909 25.88252674 -97.93920898 25.88647461 C-97.07839218 25.88655014 -96.21757538 25.88662567 -95.33067322 25.88670349 C-94.39526199 25.89186478 -93.45985077 25.89702606 -92.49609375 25.90234375 C-91.54307877 25.9037587 -90.59006378 25.90517365 -89.60816956 25.90663147 C-86.55124835 25.91224848 -83.49439923 25.92480384 -80.4375 25.9375 C-78.37044376 25.94251281 -76.30338638 25.94707609 -74.23632812 25.95117188 C-69.15752412 25.96222344 -64.0787743 25.97949945 -59 26 C-59 26.66 -59 27.32 -59 28 C-60.67002075 27.98259766 -60.67002075 27.98259766 -62.3737793 27.96484375 C-66.56589369 27.93193103 -70.75643868 27.95242339 -74.94848633 27.98779297 C-76.75121341 27.99582723 -78.55406418 27.99001307 -80.35668945 27.96923828 C-93.18117742 27.83390628 -100.64487682 29.34374422 -111 37 C-116.35817863 39.94476015 -120.25345816 40.38214072 -126.29296875 40.49609375 C-129.1404895 40.73267475 -129.1404895 40.73267475 -130.73828125 43.03515625 C-131.15464844 43.68355469 -131.57101563 44.33195312 -132 45 C-132.66 45 -133.32 45 -134 45 C-134.33 46.32 -134.66 47.64 -135 49 C-135.66 48.67 -136.32 48.34 -137 48 C-127.01651443 29.3659738 -113.47196687 13.33031746 -94 4 C-93.01 4.33 -92.02 4.66 -91 5 C-92.32 5.99 -93.64 6.98 -95 8 C-87.13308783 8.1159815 -79.26637686 8.20475893 -71.39882374 8.25906086 C-67.74531107 8.28512695 -64.0923844 8.32046776 -60.43920898 8.37719727 C-56.91191052 8.43162765 -53.38517473 8.46144302 -49.85748863 8.47438622 C-47.86043598 8.48808639 -45.86360894 8.52710294 -43.86689758 8.56648254 C-36.8728477 8.79394017 -36.8728477 8.79394017 -31.03076172 5.50927734 C-30.02553467 4.26718506 -30.02553467 4.26718506 -29 3 C-25.9855957 2.37231445 -25.9855957 2.37231445 -22.67578125 2.36328125 C-21.48275391 2.34330078 -20.28972656 2.32332031 -19.06054688 2.30273438 C-17.82369141 2.30595703 -16.58683594 2.30917969 -15.3125 2.3125 C-12.85019159 2.29597444 -10.3879191 2.27164355 -7.92578125 2.23828125 C-6.83692627 2.23868408 -5.74807129 2.23908691 -4.6262207 2.23950195 C-1.84133107 2.2679747 -1.84133107 2.2679747 0 0 Z " fill="#0A5E64" transform="translate(165,23)"/>
<path d="M0 0 C0.639375 0.66 1.27875 1.32 1.9375 2 C2.95642573 3.00194364 3.97754432 4.00165884 5 5 C5.6084375 5.61617187 6.216875 6.23234375 6.84375 6.8671875 C14.88855526 14.58179553 24.98033579 20.01646044 36 22 C36 22.66 36 23.32 36 24 C27.96428571 23.0625 27.96428571 23.0625 24 22 C27.28372867 30.67085956 30.97917209 40.05941363 37.7109375 46.68359375 C39 48 39 48 39 50 C39.5775 50.26039063 40.155 50.52078125 40.75 50.7890625 C46.11770559 53.67793183 50.88599347 58.5431596 55 63 C55 63.33 55 63.66 55 64 C50.71 63.67 46.42 63.34 42 63 C42.495 62.01 42.495 62.01 43 61 C42.12859375 60.62230469 41.2571875 60.24460938 40.359375 59.85546875 C19.49218499 50.21229761 7.65196947 33.06488031 -0.16796875 11.828125 C-1.3870102 7.95924229 -2 5.10200291 -2 1 C-1.34 0.67 -0.68 0.34 0 0 Z " fill="#270A4C" transform="translate(65,139)"/>
<path d="M0 0 C-1.31709276 2.99223016 -2.62433132 4.67967895 -5.125 6.75 C-10.4436404 11.84563661 -13.13424835 18.70043046 -16.19775391 25.28271484 C-17.09657906 27.2067368 -18.03664091 29.10751286 -19 31 C-20.0326802 28.21176345 -20.04509293 27.1322726 -19.0625 24.25 C-18.5365625 23.13625 -18.5365625 23.13625 -18 22 C-20.31 22.99 -22.62 23.98 -25 25 C-25.33 29.95 -25.66 34.9 -26 40 C-26.99 40 -27.98 40 -29 40 C-29.495 33.565 -29.495 33.565 -30 27 C-31.49743119 28.49743119 -31.33202693 29.98824239 -31.5625 32.0625 C-31.706875 33.361875 -31.85125 34.66125 -32 36 C-32.33 36 -32.66 36 -33 36 C-33.33 33.36 -33.66 30.72 -34 28 C-34.66 28.99 -35.32 29.98 -36 31 C-36.66 31 -37.32 31 -38 31 C-40.56375123 33.56375123 -40.26193711 34.5969279 -40.30859375 38.15625 C-40.33373047 39.17847656 -40.35886719 40.20070312 -40.38476562 41.25390625 C-40.4199209 43.41790883 -40.45117121 45.58197838 -40.47851562 47.74609375 C-40.50494141 48.76832031 -40.53136719 49.79054687 -40.55859375 50.84375 C-40.57204834 51.78412109 -40.58550293 52.72449219 -40.59936523 53.69335938 C-40.73157471 54.45455078 -40.86378418 55.21574219 -41 56 C-41.99 56.66 -42.98 57.32 -44 58 C-45.11823815 55.76352369 -45.19396061 54.35108471 -45.31640625 51.8671875 C-45.37924805 50.65869141 -45.37924805 50.65869141 -45.44335938 49.42578125 C-45.48267578 48.58402344 -45.52199219 47.74226563 -45.5625 46.875 C-45.62727539 45.60076172 -45.62727539 45.60076172 -45.69335938 44.30078125 C-45.79954236 42.20071777 -45.90028497 40.10038052 -46 38 C-51.41845333 43.56312077 -55.36106316 48.65611655 -58 56 C-58.66 56 -59.32 56 -60 56 C-60.50674891 48.6337803 -59.24549427 44.10112267 -55.6875 37.6875 C-55.23673096 36.86080811 -54.78596191 36.03411621 -54.3215332 35.18237305 C-44.01476539 16.95662234 -27.89009972 6.85078717 -7.9375 1.1875 C-5.10134397 0.43369054 -2.94820901 0 0 0 Z " fill="#091435" transform="translate(80,61)"/>
<path d="M0 0 C3.5625 0.125 3.5625 0.125 7 1 C9 4 9 4 8.75 7.0625 C8 10 8 10 6 12 C3.0625 12.3125 3.0625 12.3125 0 12 C-0.44835205 11.50459717 -0.8967041 11.00919434 -1.35864258 10.4987793 C-3.67239778 8.38601072 -5.23317545 8.65579849 -8.32421875 8.70703125 C-9.35224609 8.71669922 -10.38027344 8.72636719 -11.43945312 8.73632812 C-12.51130859 8.76146484 -13.58316406 8.78660156 -14.6875 8.8125 C-15.77095703 8.82603516 -16.85441406 8.83957031 -17.97070312 8.85351562 C-20.64763405 8.88889357 -23.32356838 8.93825811 -26 9 C-25.01 9.99 -25.01 9.99 -24 11 C-23.625 13.9375 -23.625 13.9375 -24 17 C-26 18.875 -26 18.875 -28 20 C-28.495 19.01 -28.495 19.01 -29 18 C-31.01669827 16.86649466 -31.01669827 16.86649466 -33 16 C-32.67 14.02 -32.34 12.04 -32 10 C-32.38463913 10.48870071 -32.76927826 10.97740143 -33.16557312 11.48091125 C-35.6515549 13.53955256 -37.14877521 13.34870246 -40.35083008 13.30541992 C-41.44659866 13.29939255 -42.54236725 13.29336517 -43.67134094 13.28715515 C-44.85874374 13.26844864 -46.04614655 13.24974213 -47.26953125 13.23046875 C-49.793619 13.22836723 -52.31770836 13.22776571 -54.84179688 13.22851562 C-58.81385597 13.21409843 -62.7838857 13.187888 -66.75561523 13.1340332 C-87.83688634 12.59011735 -87.83688634 12.59011735 -106 22 C-108.52475462 23.26237731 -110.31200466 23.09856404 -113.125 23.0625 C-114.03507812 23.05347656 -114.94515625 23.04445313 -115.8828125 23.03515625 C-116.93082031 23.01775391 -116.93082031 23.01775391 -118 23 C-117.0919838 21.86800647 -116.17316174 20.74467637 -115.25 19.625 C-114.48429687 18.68527344 -114.48429687 18.68527344 -113.703125 17.7265625 C-110.27839587 14.25470407 -105.870018 13.26478809 -101.31640625 11.87890625 C-98.91690092 11.07818189 -98.91690092 11.07818189 -96.79296875 9.4453125 C-92.7972886 7.37761788 -89.19711512 7.42422851 -84.75 7.3125 C-83.79794678 7.27906494 -82.84589355 7.24562988 -81.86499023 7.21118164 C-64.58798909 6.70322857 -47.28209478 6.91930636 -30 7 C-30 6.34 -30 5.68 -30 5 C-34.62 5 -39.24 5 -44 5 C-44 4.67 -44 4.34 -44 4 C-42.77369873 3.98541748 -41.54739746 3.97083496 -40.28393555 3.95581055 C-35.73822734 3.89787917 -31.19301719 3.82064619 -26.64770508 3.73754883 C-24.67968829 3.70427514 -22.71157551 3.67625085 -20.7434082 3.65356445 C-17.91576188 3.62006322 -15.08899718 3.56775037 -12.26171875 3.51171875 C-11.38037766 3.50532883 -10.49903656 3.4989389 -9.59098816 3.49235535 C-8.77036392 3.47256119 -7.94973969 3.45276703 -7.10424805 3.43237305 C-6.38254929 3.42126999 -5.66085052 3.41016693 -4.9172821 3.39872742 C-2.87664136 3.15722689 -2.87664136 3.15722689 -1.46614075 1.46516418 C-0.9823143 0.98166 -0.49848785 0.49815582 0 0 Z " fill="#187D84" transform="translate(155,36)"/>
<path d="M0 0 C5.62301823 0.17154373 10.17464643 0.31147733 14.69897461 4.0012207 C19.99468047 10.87012789 18.43374509 20.53017891 17.76147461 28.6887207 C18.42147461 29.0187207 19.08147461 29.3487207 19.76147461 29.6887207 C17.76147461 30.35538737 15.76147461 31.02205404 13.76147461 31.6887207 C12.81272461 32.0393457 11.86397461 32.3899707 10.88647461 32.7512207 C7.15401705 33.87095797 3.63518504 34.28799204 -0.23852539 34.6887207 C-1.44420592 30.01670865 -1.33234965 25.47375779 -1.23852539 20.6887207 C-0.6055957 20.3999707 0.02733398 20.1112207 0.67944336 19.8137207 C3.20458996 18.44928877 3.83882195 17.37280116 4.76147461 14.6887207 C4.43147461 14.0287207 4.10147461 13.3687207 3.76147461 12.6887207 C0.94548971 12.21973107 0.94548971 12.21973107 -2.30102539 12.0637207 C-3.40575195 11.98895508 -4.51047852 11.91418945 -5.64868164 11.8371582 C-6.50333008 11.78817383 -7.35797852 11.73918945 -8.23852539 11.6887207 C-8.23852539 10.3687207 -8.23852539 9.0487207 -8.23852539 7.6887207 C3.2466764 6.76854133 3.2466764 6.76854133 6.96069336 9.0246582 C8.57397461 10.6887207 8.57397461 10.6887207 10.76147461 13.6887207 C11.43915633 11.80186068 11.43915633 11.80186068 11.76147461 9.6887207 C9.86561077 7.54282648 9.86561077 7.54282648 7.76147461 5.6887207 C7.76147461 5.0287207 7.76147461 4.3687207 7.76147461 3.6887207 C0.50147461 3.6887207 -6.75852539 3.6887207 -14.23852539 3.6887207 C-14.56852539 4.6787207 -14.89852539 5.6687207 -15.23852539 6.6887207 C-17.21852539 6.6887207 -19.19852539 6.6887207 -21.23852539 6.6887207 C-21.23852539 6.0287207 -21.23852539 5.3687207 -21.23852539 4.6887207 C-20.06290039 4.2555957 -20.06290039 4.2555957 -18.86352539 3.8137207 C-11.97236538 0.86036641 -8.03491622 0.00308821 0 0 Z " fill="#482470" transform="translate(149.238525390625,109.311279296875)"/>
<path d="M0 0 C0.07410115 5.78406969 0.12857885 11.56786371 0.16479492 17.35229492 C0.17989082 19.32044283 0.20036948 21.28855706 0.22631836 23.2565918 C0.26266649 26.08390612 0.27971814 28.9107761 0.29296875 31.73828125 C0.30845261 32.61962234 0.32393646 33.50096344 0.33988953 34.40901184 C0.34022942 35.6399482 0.34022942 35.6399482 0.34057617 36.89575195 C0.34723801 37.61745071 0.35389984 38.33914948 0.36076355 39.0827179 C-0.10458957 41.55584249 -1.16523545 42.33571981 -3 44 C-4.51237739 46.78683477 -4.51237739 46.78683477 -5 50 C-3.75056659 53.3350733 -3.75056659 53.3350733 -2 56 C-2.99 56 -3.98 56 -5 56 C-10.58218291 44.19577923 -15.57804649 32.29506926 -15 19 C-14.34 19 -13.68 19 -13 19 C-12.5359375 17.081875 -12.5359375 17.081875 -12.0625 15.125 C-10.72127975 11.00974373 -4.95288522 0 0 0 Z " fill="#4A3387" transform="translate(35,98)"/>
<path d="M0 0 C0.66 0.33 1.32 0.66 2 1 C1.154375 1.7425 0.30875 2.485 -0.5625 3.25 C-1.7690625 4.61125 -1.7690625 4.61125 -3 6 C-2.95502158 8.27523089 -2.95502158 8.27523089 -2 10 C-0.35 8.68 1.3 7.36 3 6 C3.33 8.97 3.66 11.94 4 15 C3.01 15 2.02 15 1 15 C-1.56375123 17.56375123 -1.26193711 18.5969279 -1.30859375 22.15625 C-1.33373047 23.17847656 -1.35886719 24.20070313 -1.38476562 25.25390625 C-1.4199209 27.41790883 -1.45117121 29.58197838 -1.47851562 31.74609375 C-1.50494141 32.76832031 -1.53136719 33.79054687 -1.55859375 34.84375 C-1.57204834 35.78412109 -1.58550293 36.72449219 -1.59936523 37.69335938 C-1.73157471 38.45455078 -1.86378418 39.21574219 -2 40 C-2.99 40.66 -3.98 41.32 -5 42 C-6.11823815 39.76352369 -6.19396061 38.35108471 -6.31640625 35.8671875 C-6.37924805 34.65869141 -6.37924805 34.65869141 -6.44335938 33.42578125 C-6.48267578 32.58402344 -6.52199219 31.74226563 -6.5625 30.875 C-6.60568359 30.02550781 -6.64886719 29.17601563 -6.69335938 28.30078125 C-6.79954236 26.20071777 -6.90028497 24.10038052 -7 22 C-12.41845333 27.56312077 -16.36106316 32.65611655 -19 40 C-19.66 40 -20.32 40 -21 40 C-21.50695061 32.63084834 -20.24191994 28.10487245 -16.6875 21.6875 C-16.24615723 20.86660889 -15.80481445 20.04571777 -15.35009766 19.19995117 C-11.21316576 11.80842984 -6.10886968 5.81852417 0 0 Z " fill="#0F113A" transform="translate(41,77)"/>
<path d="M0 0 C0.33 0.66 0.66 1.32 1 2 C-0.2065625 3.175625 -0.2065625 3.175625 -1.4375 4.375 C-3.98690417 6.71982856 -3.98690417 6.71982856 -5 9 C-3.906875 8.34 -2.81375 7.68 -1.6875 7 C0.93707538 5.41535071 1.8256378 5 5 5 C4.796875 6.83203125 4.796875 6.83203125 4 9 C1.890625 10.44921875 1.890625 10.44921875 -0.75 11.6875 C-1.61109375 12.10386719 -2.4721875 12.52023438 -3.359375 12.94921875 C-6 14 -6 14 -8.62109375 14.453125 C-11.4083877 15.09388223 -12.40406228 15.97653319 -14.3125 18.0625 C-15.6428125 19.5165625 -15.6428125 19.5165625 -17 21 C-7.54087533 22.32759644 -0.84345748 17.73208595 7 13 C7.33 12.67 7.66 12.34 8 12 C9.35094982 11.90731001 10.70667091 11.88252674 12.06079102 11.88647461 C12.92160782 11.88655014 13.78242462 11.88662567 14.66932678 11.88670349 C15.60473801 11.89186478 16.54014923 11.89702606 17.50390625 11.90234375 C18.45692123 11.9037587 19.40993622 11.90517365 20.39183044 11.90663147 C23.44875165 11.91224848 26.50560077 11.92480384 29.5625 11.9375 C31.62955624 11.94251281 33.69661362 11.94707609 35.76367188 11.95117188 C40.84247588 11.96222344 45.9212257 11.97949945 51 12 C51 12.66 51 13.32 51 14 C49.88665283 13.98839844 48.77330566 13.97679687 47.6262207 13.96484375 C43.43410631 13.93193103 39.24356132 13.95242339 35.05151367 13.98779297 C33.24878659 13.99582723 31.44593582 13.99001307 29.64331055 13.96923828 C16.81882258 13.83390628 9.35512318 15.34374422 -1 23 C-6.35817863 25.94476015 -10.25345816 26.38214072 -16.29296875 26.49609375 C-19.1404895 26.73267475 -19.1404895 26.73267475 -20.73828125 29.03515625 C-21.15464844 29.68355469 -21.57101563 30.33195312 -22 31 C-22.66 31 -23.32 31 -24 31 C-24.33 32.32 -24.66 33.64 -25 35 C-25.66 34.67 -26.32 34.34 -27 34 C-20.34593592 21.58028911 -12.98912238 11.03901433 -2 2 C-1.34 1.34 -0.68 0.68 0 0 Z " fill="#044B54" transform="translate(55,37)"/>
<path d="M0 0 C3.5625 0.125 3.5625 0.125 7 1 C9 4 9 4 8.75 7.0625 C8 10 8 10 6 12 C3.0625 12.3125 3.0625 12.3125 0 12 C-0.44835205 11.50459717 -0.8967041 11.00919434 -1.35864258 10.4987793 C-3.67239778 8.38601072 -5.23317545 8.65579849 -8.32421875 8.70703125 C-9.35224609 8.71669922 -10.38027344 8.72636719 -11.43945312 8.73632812 C-12.51130859 8.76146484 -13.58316406 8.78660156 -14.6875 8.8125 C-16.31268555 8.83280273 -16.31268555 8.83280273 -17.97070312 8.85351562 C-20.64763405 8.88889357 -23.32356838 8.93825811 -26 9 C-25.34 9.66 -24.68 10.32 -24 11 C-23.625 13.9375 -23.625 13.9375 -24 17 C-26 18.875 -26 18.875 -28 20 C-28.33 19.34 -28.66 18.68 -29 18 C-31.01669827 16.86649466 -31.01669827 16.86649466 -33 16 C-32.67 14.02 -32.34 12.04 -32 10 C-32.66 10 -33.32 10 -34 10 C-34 9.34 -34 8.68 -34 8 C-34.66 7.67 -35.32 7.34 -36 7 C-34.02 7 -32.04 7 -30 7 C-30 6.34 -30 5.68 -30 5 C-34.62 5 -39.24 5 -44 5 C-44 4.67 -44 4.34 -44 4 C-42.1605481 3.97812622 -42.1605481 3.97812622 -40.28393555 3.95581055 C-35.73822734 3.89787917 -31.19301719 3.82064619 -26.64770508 3.73754883 C-24.67968829 3.70427514 -22.71157551 3.67625085 -20.7434082 3.65356445 C-17.91576188 3.62006322 -15.08899718 3.56775037 -12.26171875 3.51171875 C-11.38037766 3.50532883 -10.49903656 3.4989389 -9.59098816 3.49235535 C-8.77036392 3.47256119 -7.94973969 3.45276703 -7.10424805 3.43237305 C-6.38254929 3.42126999 -5.66085052 3.41016693 -4.9172821 3.39872742 C-2.87664136 3.15722689 -2.87664136 3.15722689 -1.46614075 1.46516418 C-0.9823143 0.98166 -0.49848785 0.49815582 0 0 Z " fill="#0F8382" transform="translate(155,36)"/>
<path d="M0 0 C0.33 0 0.66 0 1 0 C1.08040527 0.57967529 1.16081055 1.15935059 1.24365234 1.7565918 C1.61423972 4.40119003 1.9945265 7.04430672 2.375 9.6875 C2.50132813 10.59951172 2.62765625 11.51152344 2.7578125 12.45117188 C3.40294111 16.8864311 4.0255666 20.92236581 6 25 C5.34 25 4.68 25 4 25 C9.87100399 45.97190369 18.22394281 66.53092322 37.56640625 78.6015625 C39.68830499 79.7903571 41.81771069 80.92691211 44 82 C41 83 41 83 38.328125 81.77734375 C19.2235281 70.35822555 6.99366821 53.56436257 1.3125 31.9375 C-0.72021649 23.23217066 -4.12052122 8.24104244 0 0 Z " fill="#C473EA" transform="translate(59,115)"/>
<path d="M0 0 C0.33 0 0.66 0 1 0 C1 4.62 1 9.24 1 14 C1.66 14.33 2.32 14.66 3 15 C1.02 15.99 1.02 15.99 -1 17 C-1.08142927 18.7492214 -1.13938541 20.49954542 -1.1875 22.25 C-1.22230469 23.22453125 -1.25710937 24.1990625 -1.29296875 25.203125 C-0.95616186 28.4185081 0.01648644 29.53372652 2 32 C1.77962372 35.67293796 1.63033454 37.36966546 -1 40 C-4.5 40.3125 -4.5 40.3125 -8 40 C-10.29013653 36.5647952 -10.17842973 35.014669 -10 31 C-8.68 30.34 -7.36 29.68 -6 29 C-6.01047363 28.29391602 -6.02094727 27.58783203 -6.03173828 26.86035156 C-6.0733479 23.65693734 -6.09934204 20.45358004 -6.125 17.25 C-6.14175781 16.13882813 -6.15851562 15.02765625 -6.17578125 13.8828125 C-6.18222656 12.81289062 -6.18867187 11.74296875 -6.1953125 10.640625 C-6.20578613 9.65610352 -6.21625977 8.67158203 -6.22705078 7.65722656 C-5.99489618 4.94026889 -5.39036273 3.31887487 -4 1 C-3.01 1 -2.02 1 -1 1 C-0.67 0.67 -0.34 0.34 0 0 Z " fill="#2D1B5C" transform="translate(50,87)"/>
<path d="M0 0 C1 3 1 3 0.0625 5.1875 C-0.288125 5.785625 -0.63875 6.38375 -1 7 C-0.39215668 6.99777939 0.21568665 6.99555878 0.84194946 6.99327087 C7.2347962 6.97094797 13.62763165 6.95598217 20.02050781 6.94506836 C22.39844208 6.94007541 24.77637334 6.93327872 27.15429688 6.92456055 C52.50328391 6.83402845 52.50328391 6.83402845 64 8 C64 8.66 64 9.32 64 10 C62.32550781 10.03758423 62.32550781 10.03758423 60.6171875 10.07592773 C40.06960196 10.54059573 19.53038139 11.01033033 -1 12 C-1 11.01 -1 10.02 -1 9 C-2.04800781 9.55880859 -2.04800781 9.55880859 -3.1171875 10.12890625 C-4.02726562 10.60199219 -4.93734375 11.07507812 -5.875 11.5625 C-7.23238281 12.27599609 -7.23238281 12.27599609 -8.6171875 13.00390625 C-9.40351562 13.33261719 -10.18984375 13.66132812 -11 14 C-11.66 13.67 -12.32 13.34 -13 13 C-11.37660195 11.29115995 -9.70680947 9.62553283 -8 8 C-7.34 8 -6.68 8 -6 8 C-5.7525 7.236875 -5.505 6.47375 -5.25 5.6875 C-3.89004442 2.7635955 -2.68414174 1.69995644 0 0 Z " fill="#096267" transform="translate(61,33)"/>
<path d="M0 0 C1 3 1 3 -0.0390625 5.3046875 C-6.77893988 16.22793705 -15.68968889 23.87677544 -28 28 C-34.97883498 29.18707832 -42.06815959 29.1269234 -49.125 29.0625 C-50.08148438 29.05798828 -51.03796875 29.05347656 -52.0234375 29.04882812 C-54.34902758 29.03720017 -56.6744776 29.02086102 -59 29 C-59 28.01 -59 27.02 -59 26 C-58.24493164 25.96036133 -57.48986328 25.92072266 -56.71191406 25.87988281 C-53.22343161 25.68696643 -49.73696247 25.46861834 -46.25 25.25 C-45.06277344 25.188125 -43.87554687 25.12625 -42.65234375 25.0625 C-28.05335794 24.10518946 -16.02672777 19.92320234 -6.0625 8.875 C-3.74594753 6.06672648 -1.71311375 3.2246847 0 0 Z " fill="#9770E2" transform="translate(183,137)"/>
<path d="M0 0 C5.62301823 0.17154373 10.17464643 0.31147733 14.69897461 4.0012207 C19.99468047 10.87012789 18.43374509 20.53017891 17.76147461 28.6887207 C18.42147461 29.0187207 19.08147461 29.3487207 19.76147461 29.6887207 C18.10532804 30.07090837 16.43690437 30.40267172 14.76147461 30.6887207 C13.22989102 29.15713712 13.63442208 27.74147349 13.62084961 25.6105957 C13.60151367 24.77915039 13.58217773 23.94770508 13.56225586 23.09106445 C13.52870518 21.33868663 13.51019609 19.58594895 13.50756836 17.83325195 C13.37282545 13.23071767 13.30303192 11.32330626 10.21459961 7.7043457 C9.40506836 7.03918945 8.59553711 6.3740332 7.76147461 5.6887207 C7.76147461 5.0287207 7.76147461 4.3687207 7.76147461 3.6887207 C0.50147461 3.6887207 -6.75852539 3.6887207 -14.23852539 3.6887207 C-14.56852539 4.6787207 -14.89852539 5.6687207 -15.23852539 6.6887207 C-17.21852539 6.6887207 -19.19852539 6.6887207 -21.23852539 6.6887207 C-21.23852539 6.0287207 -21.23852539 5.3687207 -21.23852539 4.6887207 C-20.06290039 4.2555957 -20.06290039 4.2555957 -18.86352539 3.8137207 C-11.97236538 0.86036641 -8.03491622 0.00308821 0 0 Z " fill="#3F1E64" transform="translate(149.238525390625,109.311279296875)"/>
<path d="M0 0 C1.9375 0.6875 1.9375 0.6875 2.9375 2.6875 C5.95061815 3.11901972 5.95061815 3.11901972 9.4375 3.25 C15.84105913 3.59105913 15.84105913 3.59105913 16.9375 4.6875 C18.49698542 4.84436249 20.06292668 4.93826639 21.62890625 5.00390625 C22.57314453 5.04580078 23.51738281 5.08769531 24.49023438 5.13085938 C25.98006836 5.18983398 25.98006836 5.18983398 27.5 5.25 C28.49708984 5.29318359 29.49417969 5.33636719 30.52148438 5.38085938 C32.9933415 5.48730298 35.4653031 5.58931928 37.9375 5.6875 C38.4325 7.1725 38.4325 7.1725 38.9375 8.6875 C36.9375 10.6875 36.9375 10.6875 33.453125 10.734375 C32.0305244 10.64646148 30.60860117 10.54701138 29.1875 10.4375 C28.48367187 10.39753906 27.77984375 10.35757813 27.0546875 10.31640625 C22.69372134 10.0164885 19.09263143 9.10224984 14.9375 7.6875 C12.65297193 7.41169137 10.35931617 7.2031214 8.0625 7.0625 C6.91007813 6.98773438 5.75765625 6.91296875 4.5703125 6.8359375 C3.26707031 6.76246094 3.26707031 6.76246094 1.9375 6.6875 C1.6075 7.6775 1.2775 8.6675 0.9375 9.6875 C-1.875 10.3125 -1.875 10.3125 -5.0625 10.6875 C-6.0525 10.0275 -7.0425 9.3675 -8.0625 8.6875 C-7.4025 7.3675 -6.7425 6.0475 -6.0625 4.6875 C-5.7325 5.3475 -5.4025 6.0075 -5.0625 6.6875 C-3.03786745 7.33963292 -3.03786745 7.33963292 -1.0625 7.6875 C-1.63702746 3.75674356 -1.63702746 3.75674356 -4.0625 0.6875 C-2.0625 -0.3125 -2.0625 -0.3125 0 0 Z " fill="#45246C" transform="translate(124.0625,97.3125)"/>
<path d="M0 0 C1.24394531 0.00322266 2.48789063 0.00644531 3.76953125 0.00976562 C5.05472656 0.01814453 6.33992188 0.02652344 7.6640625 0.03515625 C8.97246094 0.03966797 10.28085938 0.04417969 11.62890625 0.04882812 C14.84900531 0.06058031 18.0690102 0.07701082 21.2890625 0.09765625 C21.2890625 0.75765625 21.2890625 1.41765625 21.2890625 2.09765625 C20.71986084 2.15300537 20.15065918 2.20835449 19.56420898 2.26538086 C16.95150026 2.5203634 14.33903282 2.77774303 11.7265625 3.03515625 C10.38368164 3.16567383 10.38368164 3.16567383 9.01367188 3.29882812 C0.40391531 3.74728647 0.40391531 3.74728647 -7.7109375 6.09765625 C-7.7109375 5.43765625 -7.7109375 4.77765625 -7.7109375 4.09765625 C-8.58830566 4.37814819 -8.58830566 4.37814819 -9.48339844 4.66430664 C-12.1393466 5.50686695 -14.79995535 6.33363907 -17.4609375 7.16015625 C-18.38132812 7.45470703 -19.30171875 7.74925781 -20.25 8.05273438 C-21.13945313 8.32666016 -22.02890625 8.60058594 -22.9453125 8.8828125 C-23.76225586 9.1394165 -24.57919922 9.39602051 -25.42089844 9.66040039 C-27.88961821 10.13177322 -29.3528429 9.89552561 -31.7109375 9.09765625 C-30.7109375 7.09765625 -30.7109375 7.09765625 -29.0402832 6.33569336 C-28.32960693 6.10116455 -27.61893066 5.86663574 -26.88671875 5.625 C-25.71399414 5.23538086 -25.71399414 5.23538086 -24.51757812 4.83789062 C-23.69451172 4.57298828 -22.87144531 4.30808594 -22.0234375 4.03515625 C-21.21970703 3.76638672 -20.41597656 3.49761719 -19.58789062 3.22070312 C-12.99347574 1.05851149 -6.97774518 -0.03200801 0 0 Z " fill="#51DAD9" transform="translate(87.7109375,56.90234375)"/>
<path d="M0 0 C0.0867562 4.29154022 0.1403089 8.58285668 0.1875 12.875 C0.21263672 14.09832031 0.23777344 15.32164063 0.26367188 16.58203125 C0.27817383 18.33193359 0.27817383 18.33193359 0.29296875 20.1171875 C0.3086792 21.19597168 0.32438965 22.27475586 0.34057617 23.38623047 C0.22818604 24.24877441 0.1157959 25.11131836 0 26 C-0.99 26.66 -1.98 27.32 -3 28 C-3.25015873 31.58357241 -3.25015873 31.58357241 -3 35 C-3.66 35 -4.32 35 -5 35 C-5 39.29 -5 43.58 -5 48 C-5.33 48 -5.66 48 -6 48 C-6.11600397 37.18585182 -6.03241336 26.37366109 -5.75 15.5625 C-5.73590088 14.47912354 -5.72180176 13.39574707 -5.70727539 12.27954102 C-5.67496826 11.26045654 -5.64266113 10.24137207 -5.609375 9.19140625 C-5.58842773 8.28592041 -5.56748047 7.38043457 -5.54589844 6.44750977 C-4.96766053 3.85500752 -3.14770856 0 0 0 Z " fill="#392B71" transform="translate(44,90)"/>
<path d="M0 0 C0.99 0 1.98 0 3 0 C2.67 0.99 2.34 1.98 2 3 C1.34 3 0.68 3 0 3 C-0.33 3.99 -0.66 4.98 -1 6 C-2.17973389 5.99830811 -2.17973389 5.99830811 -3.38330078 5.99658203 C-6.96472877 6.00872604 -10.54404299 6.06641584 -14.125 6.125 C-15.3625 6.12242188 -16.6 6.11984375 -17.875 6.1171875 C-24.20180377 5.96302534 -24.20180377 5.96302534 -29.77099609 8.38037109 C-30.64527642 9.47152715 -31.51357478 10.56750619 -32.37548828 11.66845703 C-36.09054089 14.7135272 -41.83865858 13.58338317 -46.375 13.375 C-48.05142578 13.33439453 -48.05142578 13.33439453 -49.76171875 13.29296875 C-52.50980752 13.22250494 -55.2538945 13.12404229 -58 13 C-58 12.67 -58 12.34 -58 12 C-50.74 11.67 -43.48 11.34 -36 11 C-36.33 10.34 -36.66 9.68 -37 9 C-36.236875 8.566875 -35.47375 8.13375 -34.6875 7.6875 C-32.04675028 6.22976969 -32.04675028 6.22976969 -30.71508789 4.42211914 C-28.17918572 2.31939599 -26.12530007 2.59829949 -22.87109375 2.55859375 C-21.67162109 2.53216797 -20.47214844 2.50574219 -19.23632812 2.47851562 C-17.98271484 2.46498047 -16.72910156 2.45144531 -15.4375 2.4375 C-12.95689664 2.40317079 -10.47638889 2.36062791 -7.99609375 2.30859375 C-6.89450928 2.29626709 -5.7929248 2.28394043 -4.65795898 2.27124023 C-1.84590133 2.26701279 -1.84590133 2.26701279 0 0 Z " fill="#179593" transform="translate(165,23)"/>
<path d="M0 0 C5.18050956 2.44473485 9.13462443 4.89871352 12 10 C13.29091503 16.55472054 13.13690819 23.34474058 13 30 C11.35 30.33 9.7 30.66 8 31 C8.020625 29.72125 8.04125 28.4425 8.0625 27.125 C8.32217789 17.67636612 8.32217789 17.67636612 5.1171875 9.09765625 C2.9468568 7.04374355 2.9468568 7.04374355 0.6171875 5.47265625 C-0.18332031 4.74369141 -0.18332031 4.74369141 -1 4 C-0.7421875 1.80859375 -0.7421875 1.80859375 0 0 Z " fill="#331A58" transform="translate(163,105)"/>
<path d="M0 0 C0.33 0 0.66 0 1 0 C1.08040527 0.57967529 1.16081055 1.15935059 1.24365234 1.7565918 C1.61423972 4.40119003 1.9945265 7.04430672 2.375 9.6875 C2.50132813 10.59951172 2.62765625 11.51152344 2.7578125 12.45117188 C3.40294111 16.8864311 4.0255666 20.92236581 6 25 C5.34 25 4.68 25 4 25 C4.32355469 26.12019531 4.64710937 27.24039063 4.98046875 28.39453125 C5.38373836 29.86693423 5.7860316 31.33960488 6.1875 32.8125 C6.40341797 33.55048828 6.61933594 34.28847656 6.84179688 35.04882812 C7.41796875 37.20703125 7.41796875 37.20703125 8 41 C6.53637695 42.73706055 6.53637695 42.73706055 5 44 C4.17848263 41.18986495 3.36768438 38.37731814 2.5625 35.5625 C2.21735352 34.3878418 2.21735352 34.3878418 1.86523438 33.18945312 C-0.41869098 25.14606385 -1.14193028 17.40066065 -1.125 9.0625 C-1.12757812 7.77472656 -1.13015625 6.48695312 -1.1328125 5.16015625 C-1 2 -1 2 0 0 Z " fill="#A250DC" transform="translate(59,115)"/>
<path d="M0 0 C2.36293746 0.00543147 4.72569082 -0.00001076 7.08862305 -0.00634766 C8.58927451 -0.00568807 10.08992586 -0.00440939 11.59057617 -0.00244141 C12.29775284 -0.00446564 13.0049295 -0.00648987 13.73353577 -0.00857544 C18.65917082 0.01537199 18.65917082 0.01537199 19.77416992 1.13037109 C20.67146929 8.90696559 17.79282171 15.0581012 14.77416992 22.13037109 C14.11416992 21.47037109 13.45416992 20.81037109 12.77416992 20.13037109 C13.22791992 19.20224609 13.68166992 18.27412109 14.14916992 17.31787109 C16.27185393 12.42865579 16.93309487 7.37091565 17.77416992 2.13037109 C13.15416992 2.13037109 8.53416992 2.13037109 3.77416992 2.13037109 C3.44416992 3.12037109 3.11416992 4.11037109 2.77416992 5.13037109 C1.45416992 4.80037109 0.13416992 4.47037109 -1.22583008 4.13037109 C-1.22583008 3.47037109 -1.22583008 2.81037109 -1.22583008 2.13037109 C-9.14583008 2.13037109 -17.06583008 2.13037109 -25.22583008 2.13037109 C-25.22583008 1.80037109 -25.22583008 1.47037109 -25.22583008 1.13037109 C-16.81186732 0.06915057 -8.46509937 -0.02326314 0 0 Z " fill="#42DBD3" transform="translate(168.225830078125,17.86962890625)"/>
<path d="M0 0 C4.37823917 -0.04938149 8.75633146 -0.0857104 13.13476562 -0.10986328 C14.6247032 -0.11993043 16.11462097 -0.13358518 17.60449219 -0.15087891 C19.74419028 -0.17509653 21.88362753 -0.18647564 24.0234375 -0.1953125 C25.31169434 -0.20578613 26.59995117 -0.21625977 27.92724609 -0.22705078 C31 0 31 0 33 2 C31.18813941 3.81186059 28.38298284 3.2380033 25.9375 3.31640625 C24.67244629 3.35838135 23.40739258 3.40035645 22.10400391 3.44360352 C20.73601108 3.48352708 19.36800957 3.52315415 18 3.5625 C16.62548507 3.60528448 15.25097335 3.64817184 13.87646484 3.69116211 C4.24931114 3.98192658 -5.36850678 4.12710182 -15 4 C-15 3.67 -15 3.34 -15 3 C-10.05 2.67 -5.1 2.34 0 2 C0 1.34 0 0.68 0 0 Z " fill="#0C7172" transform="translate(97,32)"/>
<path d="M0 0 C2.475 0.495 2.475 0.495 5 1 C5.75 3.75 5.75 3.75 6 7 C4.4375 9.4375 4.4375 9.4375 2 11 C-1.25 10.75 -1.25 10.75 -4 10 C-4.33 9.01 -4.66 8.02 -5 7 C-13.58 7 -22.16 7 -31 7 C-31 6.67 -31 6.34 -31 6 C-30.20303711 5.99589111 -29.40607422 5.99178223 -28.58496094 5.98754883 C-24.97255377 5.95464655 -21.36184061 5.88400344 -17.75 5.8125 C-16.49574219 5.80669922 -15.24148437 5.80089844 -13.94921875 5.79492188 C-12.14130859 5.75141602 -12.14130859 5.75141602 -10.296875 5.70703125 C-8.63156738 5.68346558 -8.63156738 5.68346558 -6.93261719 5.65942383 C-3.12932908 4.80422227 -2.08859192 3.19287936 0 0 Z " fill="#159997" transform="translate(168,23)"/>
<path d="M0 0 C10.89 0 21.78 0 33 0 C33 0.33 33 0.66 33 1 C25.41 1.33 17.82 1.66 10 2 C10.66 2.66 11.32 3.32 12 4 C12.375 6.9375 12.375 6.9375 12 10 C10 11.875 10 11.875 8 13 C7.67 12.34 7.34 11.68 7 11 C4.98330173 9.86649466 4.98330173 9.86649466 3 9 C3.33 7.02 3.66 5.04 4 3 C3.34 3 2.68 3 2 3 C2 2.34 2 1.68 2 1 C1.34 0.67 0.68 0.34 0 0 Z " fill="#168C8E" transform="translate(119,43)"/>
<path d="M0 0 C0.66 0.33 1.32 0.66 2 1 C1.67 1.33 1.34 1.66 1 2 C0.87894665 3.68331618 0.82040331 5.37122153 0.7890625 7.05859375 C0.76070312 8.08404297 0.73234375 9.10949219 0.703125 10.16601562 C0.65113902 12.34292839 0.60683878 14.52003859 0.5703125 16.69726562 C0.539375 17.72400391 0.5084375 18.75074219 0.4765625 19.80859375 C0.45674316 20.75532959 0.43692383 21.70206543 0.41650391 22.67749023 C0.27905762 23.44391846 0.14161133 24.21034668 0 25 C-0.99 25.66 -1.98 26.32 -3 27 C-4.88435369 23.23129262 -4.60921283 18.7779246 -4.875 14.625 C-4.96007813 13.6659375 -5.04515625 12.706875 -5.1328125 11.71875 C-5.29603737 9.05521683 -5.39027836 6.64092146 -5 4 C-2.5078125 1.3359375 -2.5078125 1.3359375 0 0 Z M-9 8 C-8.01 8.495 -8.01 8.495 -7 9 C-7.99 9.495 -7.99 9.495 -9 10 C-9 9.34 -9 8.68 -9 8 Z " fill="#251B52" transform="translate(39,92)"/>
<path d="M0 0 C0.33 0 0.66 0 1 0 C1 5.94 1 11.88 1 18 C-0.98 18.33 -2.96 18.66 -5 19 C-6.20568053 14.32798795 -6.09382426 9.78503708 -6 5 C-5.38125 4.731875 -4.7625 4.46375 -4.125 4.1875 C-1.7004767 3.04443152 -1.7004767 3.04443152 0 0 Z " fill="#573285" transform="translate(154,125)"/>
<path d="M0 0 C3.375 0.3125 3.375 0.3125 7 1 C9 4 9 4 8.75 7.0625 C8 10 8 10 6 12 C3.0625 12.375 3.0625 12.375 0 12 C-1.875 10 -1.875 10 -3 8 C-2.34 8 -1.68 8 -1 8 C-0.67 5.36 -0.34 2.72 0 0 Z " fill="#0E8788" transform="translate(155,36)"/>
<path d="M0 0 C1 3 1 3 -0.0390625 5.3046875 C-5.11510152 13.53137144 -10.56169643 19.17574393 -19 24 C-19.66 24 -20.32 24 -21 24 C-21 23.34 -21 22.68 -21 22 C-21.66 21.67 -22.32 21.34 -23 21 C-22.28714844 20.64808594 -21.57429687 20.29617187 -20.83984375 19.93359375 C-11.16674633 14.94732684 -5.32903219 9.45473453 0 0 Z " fill="#8C70DE" transform="translate(183,137)"/>
<path d="M0 0 C0.33 0 0.66 0 1 0 C1 6.93 1 13.86 1 21 C-0.32 21 -1.64 21 -3 21 C-3.33 14.73 -3.66 8.46 -4 2 C-3.01 2 -2.02 2 -1 2 C-0.67 1.34 -0.34 0.68 0 0 Z " fill="#4D2C76" transform="translate(162,120)"/>
<path d="M0 0 C2 1 2 1 3 3 C1.96552734 3.52787109 1.96552734 3.52787109 0.91015625 4.06640625 C-8.28236349 8.8959468 -15.84458665 14.17462156 -22.4921875 22.203125 C-23.9167841 23.90083079 -25.41016426 25.45776413 -27 27 C-22.61696823 14.76222813 -11.22666944 5.87509644 0 0 Z " fill="#3297A1" transform="translate(55,65)"/>
<path d="M0 0 C1.9375 0.6875 1.9375 0.6875 2.9375 2.6875 C5.46483235 3.34305119 5.46483235 3.34305119 7.9375 3.6875 C7.9375 4.3475 7.9375 5.0075 7.9375 5.6875 C9.9175 5.6875 11.8975 5.6875 13.9375 5.6875 C13.9375 6.0175 13.9375 6.3475 13.9375 6.6875 C9.9775 6.6875 6.0175 6.6875 1.9375 6.6875 C1.6075 7.6775 1.2775 8.6675 0.9375 9.6875 C-1.875 10.3125 -1.875 10.3125 -5.0625 10.6875 C-6.0525 10.0275 -7.0425 9.3675 -8.0625 8.6875 C-7.4025 7.3675 -6.7425 6.0475 -6.0625 4.6875 C-5.7325 5.3475 -5.4025 6.0075 -5.0625 6.6875 C-3.03786745 7.33963292 -3.03786745 7.33963292 -1.0625 7.6875 C-1.63702746 3.75674356 -1.63702746 3.75674356 -4.0625 0.6875 C-2.0625 -0.3125 -2.0625 -0.3125 0 0 Z " fill="#582C87" transform="translate(124.0625,97.3125)"/>
<path d="M0 0 C1.92176226 5.40103118 -0.8142339 10.01910271 -3 15 C-6.67691859 22.48754331 -11.55697335 28.66517393 -18 34 C-18.66 34 -19.32 34 -20 34 C-18.58551243 30.71636814 -16.89728224 28.81287147 -14.25 26.4375 C-6.77801212 19.12794664 -3.21461887 9.77622327 0 0 Z " fill="#4762F1" transform="translate(185,157)"/>
<path d="M0 0 C0.99 0 1.98 0 3 0 C2.67 0.99 2.34 1.98 2 3 C1.34 3 0.68 3 0 3 C-0.33 3.99 -0.66 4.98 -1 6 C-10.24 6.33 -19.48 6.66 -29 7 C-28.67 6.01 -28.34 5.02 -28 4 C-19.42 4 -10.84 4 -2 4 C-1.34 2.68 -0.68 1.36 0 0 Z " fill="#0B8481" transform="translate(165,23)"/>
<path d="M0 0 C1.32 0.66 2.64 1.32 4 2 C4 2.66 4 3.32 4 4 C5.05767578 3.75443359 5.05767578 3.75443359 6.13671875 3.50390625 C9.09658688 2.98300176 11.81061273 2.90133268 14.8125 2.9375 C16.27623047 2.95103516 16.27623047 2.95103516 17.76953125 2.96484375 C18.87361328 2.98224609 18.87361328 2.98224609 20 3 C18.68 3.33 17.36 3.66 16 4 C16 4.66 16 5.32 16 6 C12.04 6 8.08 6 4 6 C3.34 7.32 2.68 8.64 2 10 C0.68 10 -0.64 10 -2 10 C-2 9.34 -2 8.68 -2 8 C-1.34 7.67 -0.68 7.34 0 7 C0 4.69 0 2.38 0 0 Z " fill="#5F2C92" transform="translate(112,110)"/>
<path d="M0 0 C-0.99 0.33 -1.98 0.66 -3 1 C-2.67 1.66 -2.34 2.32 -2 3 C-4.74663704 3.86656998 -7.4964243 4.71851786 -10.25 5.5625 C-11.02730469 5.80935547 -11.80460937 6.05621094 -12.60546875 6.31054688 C-13.35957031 6.53935547 -14.11367187 6.76816406 -14.890625 7.00390625 C-15.58188477 7.21861572 -16.27314453 7.4333252 -16.98535156 7.65454102 C-19.28678704 8.0491764 -20.79616682 7.71084423 -23 7 C-21.45722084 3.91444168 -18.86412199 3.71486206 -15.70898438 2.64257812 C-14.87689453 2.36865234 -14.04480469 2.09472656 -13.1875 1.8125 C-11.95676758 1.38420898 -11.95676758 1.38420898 -10.70117188 0.94726562 C-9.90646484 0.68236328 -9.11175781 0.41746094 -8.29296875 0.14453125 C-7.5661792 -0.09934326 -6.83938965 -0.34321777 -6.09057617 -0.59448242 C-3.72990887 -1.05239068 -2.2628096 -0.74682606 0 0 Z " fill="#44C4C9" transform="translate(79,59)"/>
<path d="M0 0 C0.66 0.33 1.32 0.66 2 1 C1.67 1.33 1.34 1.66 1 2 C0.76346477 4.52596259 0.57826308 7.03107207 0.4375 9.5625 C0.39431641 10.27341797 0.35113281 10.98433594 0.30664062 11.71679688 C0.20028223 13.47761912 0.09961154 15.2387832 0 17 C-0.99 17 -1.98 17 -3 17 C-3.33 12.71 -3.66 8.42 -4 4 C-5.49743119 5.49743119 -5.33202693 6.98824239 -5.5625 9.0625 C-5.706875 10.361875 -5.85125 11.66125 -6 13 C-6.33 13 -6.66 13 -7 13 C-7.28778107 9.9495207 -7.4480397 7.03911268 -7 4 C-4.625 2 -4.625 2 -2 1 C-1.34 0.67 -0.68 0.34 0 0 Z " fill="#1E1A4A" transform="translate(54,84)"/>
<path d="M0 0 C1.97909398 -0.02686553 3.95828971 -0.04633375 5.9375 -0.0625 C7.03964844 -0.07410156 8.14179688 -0.08570312 9.27734375 -0.09765625 C12 0 12 0 13 1 C13.89729936 8.7765945 11.01865179 14.9277301 8 22 C7.34 21.34 6.68 20.68 6 20 C6.45375 19.071875 6.9075 18.14375 7.375 17.1875 C9.49768401 12.29828469 10.15892495 7.24054456 11 2 C7.37 2 3.74 2 0 2 C0 1.34 0 0.68 0 0 Z " fill="#50FBF2" transform="translate(175,18)"/>
<path d="M0 0 C0.33 0 0.66 0 1 0 C1 4.62 1 9.24 1 14 C1.66 14.33 2.32 14.66 3 15 C2.35546875 15.21398437 1.7109375 15.42796875 1.046875 15.6484375 C-1.27839115 16.8473523 -1.27839115 16.8473523 -1.609375 19.6015625 C-1.65578125 20.59929687 -1.7021875 21.59703125 -1.75 22.625 C-1.80671875 23.62789062 -1.8634375 24.63078125 -1.921875 25.6640625 C-1.96054687 26.82035156 -1.96054687 26.82035156 -2 28 C-2.33 28 -2.66 28 -3 28 C-3.24032403 8.21332133 -3.24032403 8.21332133 -2 2 C-1.34 1.34 -0.68 0.68 0 0 Z " fill="#2D2960" transform="translate(50,87)"/>
<path d="M0 0 C2.44989101 3.74235319 2.23086143 7.44225419 2.125 11.75 C2.11597656 12.44738281 2.10695312 13.14476562 2.09765625 13.86328125 C2.07419888 15.57566958 2.03833104 17.28788004 2 19 C2.99 19.33 3.98 19.66 5 20 C2.69 20.33 0.38 20.66 -2 21 C-1.86179731 17.6871348 -1.71316222 14.37482011 -1.5625 11.0625 C-1.52318359 10.11697266 -1.48386719 9.17144531 -1.44335938 8.19726562 C-1.40146484 7.29814453 -1.35957031 6.39902344 -1.31640625 5.47265625 C-1.27974854 4.64000244 -1.24309082 3.80734863 -1.20532227 2.94946289 C-1 1 -1 1 0 0 Z " fill="#38185A" transform="translate(157,122)"/>
<path d="M0 0 C1.5 1.375 1.5 1.375 3 3 C3 3.66 3 4.32 3 5 C2.34 5 1.68 5 1 5 C1.32355469 6.12019531 1.64710937 7.24039063 1.98046875 8.39453125 C2.38373836 9.86693423 2.7860316 11.33960488 3.1875 12.8125 C3.40341797 13.55048828 3.61933594 14.28847656 3.84179688 15.04882812 C4.41796875 17.20703125 4.41796875 17.20703125 5 21 C3.61328125 23.01171875 3.61328125 23.01171875 2 24 C-0.55204834 16.28309193 -1.70799463 9.14193827 -1 1 C-0.67 0.67 -0.34 0.34 0 0 Z " fill="#9D55CE" transform="translate(62,135)"/>
<path d="M0 0 C3 1 3 1 4.60546875 3.87109375 C5.12753906 5.04800781 5.64960937 6.22492188 6.1875 7.4375 C6.71730469 8.61183594 7.24710937 9.78617188 7.79296875 10.99609375 C9 14 9 14 9 16 C8.01 16.33 7.02 16.66 6 17 C2.40476401 11.26884891 0.37035409 6.78982507 0 0 Z " fill="#BA6CE8" transform="translate(65,155)"/>
<path d="M0 0 C0.598125 0.20625 1.19625 0.4125 1.8125 0.625 C1.8125 1.615 1.8125 2.605 1.8125 3.625 C2.1425 4.615 2.4725 5.605 2.8125 6.625 C2.4825 7.285 2.1525 7.945 1.8125 8.625 C-0.8275 8.295 -3.4675 7.965 -6.1875 7.625 C-5.875 4.75 -5.875 4.75 -5.1875 1.625 C-2.1875 -0.375 -2.1875 -0.375 0 0 Z " fill="#582C88" transform="translate(121.1875,96.375)"/>
<path d="M0 0 C0.99 0.33 1.98 0.66 3 1 C2.38511719 1.88751953 2.38511719 1.88751953 1.7578125 2.79296875 C0.94957031 3.97826172 0.94957031 3.97826172 0.125 5.1875 C-0.40867187 5.96480469 -0.94234375 6.74210937 -1.4921875 7.54296875 C-2.98015439 9.9676609 -4.02428078 12.3333499 -5 15 C-5.66 15 -6.32 15 -7 15 C-7.08131463 13.56344146 -7.13933559 12.1255517 -7.1875 10.6875 C-7.22230469 9.88699219 -7.25710937 9.08648437 -7.29296875 8.26171875 C-6.93200399 5.4750708 -6.13971037 4.74596221 -4 3 C-3.01 2.13375 -3.01 2.13375 -2 1.25 C-1.01 0.63125 -1.01 0.63125 0 0 Z " fill="#18184C" transform="translate(27,102)"/>
<path d="M0 0 C0.33 0.66 0.66 1.32 1 2 C-2.18824568 3.59412284 -5.62896662 3.10174735 -9.125 3.0625 C-9.87910156 3.05798828 -10.63320312 3.05347656 -11.41015625 3.04882812 C-13.27347127 3.03703499 -15.13674555 3.01909942 -17 3 C-17 2.01 -17 1.02 -17 0 C-14.54203147 -0.19436491 -12.08390706 -0.3807742 -9.625 -0.5625 C-8.92632812 -0.61857422 -8.22765625 -0.67464844 -7.5078125 -0.73242188 C-2.2265625 -1.11328125 -2.2265625 -1.11328125 0 0 Z " fill="#9971EB" transform="translate(141,163)"/>
<path d="M0 0 C4.09274885 1.57413417 7.35956013 4.54102377 10 8 C10 8.99 10 9.98 10 11 C10.66 11 11.32 11 12 11 C15.34821429 17.96428571 15.34821429 17.96428571 14 22 C13.55269531 21.11957031 13.10539063 20.23914063 12.64453125 19.33203125 C12.03996094 18.17058594 11.43539062 17.00914063 10.8125 15.8125 C10.22082031 14.66394531 9.62914062 13.51539062 9.01953125 12.33203125 C6.99932155 8.99888062 4.81688833 6.66665429 2 4 C0.6875 1.6875 0.6875 1.6875 0 0 Z " fill="#371B63" transform="translate(172,96)"/>
<path d="M0 0 C3.36281578 1.44120676 5.5519418 3.28964985 8 6 C8 6.33 8 6.66 8 7 C3.71 6.67 -0.58 6.34 -5 6 C-4.67 5.34 -4.34 4.68 -4 4 C-4.66 3.34 -5.32 2.68 -6 2 C-4.02 2 -2.04 2 0 2 C0 1.34 0 0.68 0 0 Z " fill="#321A6A" transform="translate(112,196)"/>
<path d="M0 0 C0.66 0 1.32 0 2 0 C2 5.94 2 11.88 2 18 C1.01 18.33 0.02 18.66 -1 19 C-1 18.34 -1 17.68 -1 17 C-0.34 17 0.32 17 1 17 C-0.05875074 13.59687262 -1.00902154 10.98646769 -3 8 C-2.5390625 5.95703125 -2.5390625 5.95703125 -1.625 3.8125 C-1.32851562 3.09707031 -1.03203125 2.38164062 -0.7265625 1.64453125 C-0.36691406 0.83048828 -0.36691406 0.83048828 0 0 Z " fill="#586AE1" transform="translate(186,128)"/>
<path d="M0 0 C-1.12158937 2.91613235 -2.64121566 4.70845566 -4.875 6.8125 C-7.15063443 8.98822852 -8.74287111 11.04754174 -10.25 13.8125 C-12 17 -12 17 -14 18 C-12.76554912 12.38184571 -11.03574938 9.33875189 -7 5.0625 C-6.113125 4.10472656 -5.22625 3.14695312 -4.3125 2.16015625 C-2 0 -2 0 0 0 Z " fill="#AE5AE6" transform="translate(107,96)"/>
<path d="M0 0 C1 3 1 3 -0.109375 5.33984375 C-0.65078125 6.19707031 -1.1921875 7.05429688 -1.75 7.9375 C-2.28109375 8.79214844 -2.8121875 9.64679688 -3.359375 10.52734375 C-4.83443227 12.75046577 -6.37234254 14.88698685 -8 17 C-8.66 16.67 -9.32 16.34 -10 16 C-9.41098089 12.71729591 -8.38176788 10.99329724 -6.125 8.5625 C-3.70437269 5.86256954 -1.74472326 3.19865931 0 0 Z " fill="#7D6BDC" transform="translate(183,137)"/>
<path d="M0 0 C0.33 0 0.66 0 1 0 C1 2.31 1 4.62 1 7 C1.66 7 2.32 7 3 7 C3.1799928 12.21979128 2.97094808 16.07262981 1 21 C0.34 20.67 -0.32 20.34 -1 20 C-0.67 13.4 -0.34 6.8 0 0 Z " fill="#100029" transform="translate(148,139)"/>
<path d="M0 0 C0.33 0.66 0.66 1.32 1 2 C2.98 2 4.96 2 7 2 C7 2.33 7 2.66 7 3 C6.0925 3.20625 5.185 3.4125 4.25 3.625 C0.23537961 5.32349324 -0.77713065 7.3481432 -3 11 C-3.66 11 -4.32 11 -5 11 C-5.33 12.32 -5.66 13.64 -6 15 C-6.66 14.67 -7.32 14.34 -8 14 C-5.36 9.38 -2.72 4.76 0 0 Z " fill="#013F49" transform="translate(36,57)"/>
<path d="M0 0 C0.66 0.33 1.32 0.66 2 1 C0.89718873 2.27200971 -0.20730769 3.54255853 -1.3125 4.8125 C-1.92738281 5.52019531 -2.54226562 6.22789062 -3.17578125 6.95703125 C-6.44911047 10.6228796 -6.44911047 10.6228796 -8 12 C-8.66 12 -9.32 12 -10 12 C-8.52278578 8.54798361 -6.56205999 6.35038064 -3.875 3.75 C-3.15054688 3.04359375 -2.42609375 2.3371875 -1.6796875 1.609375 C-1.12539062 1.07828125 -0.57109375 0.5471875 0 0 Z " fill="#506BED" transform="translate(175,179)"/>
<path d="M0 0 C0.99 0 1.98 0 3 0 C3 4.29 3 8.58 3 13 C2.34 13 1.68 13 1 13 C-0.00496852 9.98509443 -0.10335303 7.95818308 -0.0625 4.8125 C-0.05347656 3.91144531 -0.04445312 3.01039063 -0.03515625 2.08203125 C-0.02355469 1.39496094 -0.01195312 0.70789063 0 0 Z " fill="#B562EB" transform="translate(59,131)"/>
<path d="M0 0 C1.485 0.99 1.485 0.99 3 2 C2.33035714 10.16964286 2.33035714 10.16964286 -1 13 C-1.0272415 11.58344207 -1.04650467 10.16672955 -1.0625 8.75 C-1.07410156 7.96109375 -1.08570312 7.1721875 -1.09765625 6.359375 C-1.00385306 4.09308998 -0.63241063 2.1711105 0 0 Z " fill="#024B59" transform="translate(21,95)"/>
<path d="M0 0 C-0.33 1.65 -0.66 3.3 -1 5 C-2.65 4.67 -4.3 4.34 -6 4 C-6 2.68 -6 1.36 -6 0 C-3.50907189 -1.24546405 -2.58919267 -0.7767578 0 0 Z " fill="#31D5CE" transform="translate(171,26)"/>
<path d="M0 0 C1.32 0 2.64 0 4 0 C5.125 3.75 5.125 3.75 4 6 C2.35 5.67 0.7 5.34 -1 5 C-0.67 3.35 -0.34 1.7 0 0 Z " fill="#62399D" transform="translate(35,141)"/>
<path d="M0 0 C0.66 0 1.32 0 2 0 C2 2.64 2 5.28 2 8 C1.34 8 0.68 8 0 8 C-0.33 8.99 -0.66 9.98 -1 11 C-2.1875 8.3125 -2.1875 8.3125 -3 5 C-1.75 2.125 -1.75 2.125 0 0 Z " fill="#27154B" transform="translate(186,120)"/>
<path d="M0 0 C2.0625 0.4375 2.0625 0.4375 4 1 C4.33 2.32 4.66 3.64 5 5 C3.35 5.33 1.7 5.66 0 6 C-0.38218767 4.34385343 -0.71395102 2.67542976 -1 1 C-0.67 0.67 -0.34 0.34 0 0 Z " fill="#4B3185" transform="translate(44,118)"/>
<path d="M0 0 C2.125 0.9375 2.125 0.9375 4 2 C3.67 3.32 3.34 4.64 3 6 C1.35 5.67 -0.3 5.34 -2 5 C-2 3.68 -2 2.36 -2 1 C-1.34 0.67 -0.68 0.34 0 0 Z " fill="#35CBCA" transform="translate(157,39)"/>
<path d="M0 0 C0.33 0 0.66 0 1 0 C1.08333357 4.8333472 0.95261487 9.23692563 0 14 C-0.66 14 -1.32 14 -2 14 C-2.3690205 4.58997722 -2.3690205 4.58997722 0 0 Z " fill="#3F3A73" transform="translate(60,92)"/>
<path d="M0 0 C1.27230469 0.00902344 2.54460937 0.01804688 3.85546875 0.02734375 C5.31919922 0.04474609 5.31919922 0.04474609 6.8125 0.0625 C6.8125 0.3925 6.8125 0.7225 6.8125 1.0625 C4.75077387 1.40058686 2.6880797 1.73277361 0.625 2.0625 C-1.09783203 2.3409375 -1.09783203 2.3409375 -2.85546875 2.625 C-5.69165393 2.99739477 -8.33469564 3.14846021 -11.1875 3.0625 C-9.07664535 -1.15920929 -4.12352068 -0.03783046 0 0 Z " fill="#5CE7E6" transform="translate(86.1875,57.9375)"/>
<path d="M0 0 C1.32 0.66 2.64 1.32 4 2 C3.67 3.32 3.34 4.64 3 6 C1.35 5.67 -0.3 5.34 -2 5 C-1.125 1.125 -1.125 1.125 0 0 Z " fill="#28B2B4" transform="translate(124,47)"/>
<path d="M0 0 C0.66 0 1.32 0 2 0 C1.42415568 2.38564077 0.77772405 4.66682784 0 7 C-2.31 6.67 -4.62 6.34 -7 6 C-7 5.34 -7 4.68 -7 4 C-5.35 4 -3.7 4 -2 4 C-1.34 2.68 -0.68 1.36 0 0 Z " fill="#0B807F" transform="translate(154,37)"/>
<path d="M0 0 C2.1464753 0.11344376 4.29220592 0.24106345 6.4375 0.375 C8.22994141 0.47941406 8.22994141 0.47941406 10.05859375 0.5859375 C11.02925781 0.72257813 11.99992187 0.85921875 13 1 C13.33 1.66 13.66 2.32 14 3 C12.22992286 3.08114106 10.45877902 3.13925505 8.6875 3.1875 C7.70136719 3.22230469 6.71523437 3.25710937 5.69921875 3.29296875 C3 3 3 3 1.14453125 1.48828125 C0.76683594 0.99714844 0.38914062 0.50601563 0 0 Z " fill="#48307E" transform="translate(102,162)"/>
<path d="M0 0 C1.32 0.66 2.64 1.32 4 2 C3.67 3.32 3.34 4.64 3 6 C1.35 5.67 -0.3 5.34 -2 5 C-1.125 1.125 -1.125 1.125 0 0 Z " fill="#894DC2" transform="translate(120,99)"/>
<path d="M0 0 C3.47775179 1.51553404 5.9557984 3.5773456 8.75 6.125 C9.94882812 7.21167969 9.94882812 7.21167969 11.171875 8.3203125 C11.77515625 8.87460938 12.3784375 9.42890625 13 10 C12.01 10.495 12.01 10.495 11 11 C9.72486237 9.92173635 8.45507431 8.83714481 7.1875 7.75 C6.47980469 7.14671875 5.77210937 6.5434375 5.04296875 5.921875 C3.08110329 4.07629602 1.54330375 2.20054668 0 0 Z " fill="#894CDC" transform="translate(44,172)"/>
<path d="M0 0 C1.98 0.495 1.98 0.495 4 1 C3.67 2.65 3.34 4.3 3 6 C1.68 5.67 0.36 5.34 -1 5 C-0.67 3.35 -0.34 1.7 0 0 Z " fill="#9F53DB" transform="translate(109,112)"/>
<path d="M0 0 C0.75 1.75 0.75 1.75 1 4 C-0.9375 6.25 -0.9375 6.25 -3 8 C-3.66 7.67 -4.32 7.34 -5 7 C-3.75023244 3.34683329 -3.32901247 2.21934164 0 0 Z " fill="#161147" transform="translate(34,92)"/>
<path d="M0 0 C0.66 0.66 1.32 1.32 2 2 C1.75 3.6875 1.75 3.6875 1 6 C0.649375 7.2375 0.29875 8.475 -0.0625 9.75 C-0.5265625 11.35875 -0.5265625 11.35875 -1 13 C-1.99 12.67 -2.98 12.34 -4 12 C-2.68 8.04 -1.36 4.08 0 0 Z " fill="#024250" transform="translate(26,76)"/>
<path d="M0 0 C0 0.66 0 1.32 0 2 C-2.1875 3.5078125 -2.1875 3.5078125 -5 5.125 C-5.928125 5.66382812 -6.85625 6.20265625 -7.8125 6.7578125 C-8.8953125 7.37269531 -8.8953125 7.37269531 -10 8 C-7.92379115 3.44573543 -5.311983 0 0 0 Z " fill="#329BA9" transform="translate(49,71)"/>
<path d="M0 0 C-0.99 0.33 -1.98 0.66 -3 1 C-2.67 1.66 -2.34 2.32 -2 3 C-6.455 3.495 -6.455 3.495 -11 4 C-7.39987093 0.15158617 -5.25169925 -1.6298377 0 0 Z " fill="#47D0D3" transform="translate(79,59)"/>
<path d="M0 0 C3.37462715 0.54723683 5.08235 1.0549 8 3 C4.32589215 4.17571451 0.83070817 4.07366746 -3 4 C-2.01 2.68 -1.02 1.36 0 0 Z " fill="#A751E8" transform="translate(103,198)"/>
<path d="M0 0 C0.33 0.66 0.66 1.32 1 2 C0.01 2 -0.98 2 -2 2 C-2.33 2.99 -2.66 3.98 -3 5 C-4.32 4.67 -5.64 4.34 -7 4 C-7 3.34 -7 2.68 -7 2 C-8.32 1.67 -9.64 1.34 -11 1 C-5.555 0.505 -5.555 0.505 0 0 Z " fill="#44EDE2" transform="translate(174,18)"/>
<path d="M0 0 C2.15377564 2.62198774 3.40072174 4.64404172 4 8 C3.01 8.33 2.02 8.66 1 9 C0.01 7.02 -0.98 5.04 -2 3 C-1.34 3 -0.68 3 0 3 C0 2.01 0 1.02 0 0 Z " fill="#B461DF" transform="translate(70,163)"/>
<path d="M0 0 C0.66 0.66 1.32 1.32 2 2 C1.65428499 9.26001521 1.65428499 9.26001521 -0.55078125 11.75390625 C-1.02902344 12.16511719 -1.50726563 12.57632813 -2 13 C-1.85769192 11.58297487 -1.71099254 10.1663904 -1.5625 8.75 C-1.48128906 7.96109375 -1.40007812 7.1721875 -1.31640625 6.359375 C-1.02365007 4.17635361 -0.57935581 2.1226818 0 0 Z " fill="#C868F6" transform="translate(92,114)"/>
<path d="M0 0 C-0.6875 2.4375 -0.6875 2.4375 -2 5 C-4.625 5.8125 -4.625 5.8125 -7 6 C-5.52522876 2.59668175 -4.14385429 0 0 0 Z " fill="#9A7EE8" transform="translate(174,151)"/>
<path d="M0 0 C2.27795022 2.27795022 3.05219877 3.93787293 4 7 C3.55078125 9.1640625 3.55078125 9.1640625 3 11 C2.30034557 9.73581754 1.61565237 8.46334598 0.9375 7.1875 C0.55464844 6.47980469 0.17179688 5.77210937 -0.22265625 5.04296875 C-1 3 -1 3 0 0 Z " fill="#26185A" transform="translate(183,107)"/>
<path d="M0 0 C1.2065625 0.0309375 1.2065625 0.0309375 2.4375 0.0625 C0.4375 2.0625 0.4375 2.0625 -1.5625 3.0625 C-2.0308265 5.64855332 -2.0308265 5.64855332 -2.1875 8.625 C-2.26226562 9.63691406 -2.33703125 10.64882812 -2.4140625 11.69140625 C-2.46304688 12.47386719 -2.51203125 13.25632812 -2.5625 14.0625 C-2.8925 14.0625 -3.2225 14.0625 -3.5625 14.0625 C-3.58935938 11.91673363 -3.60883088 9.77087355 -3.625 7.625 C-3.63660156 6.43003906 -3.64820313 5.23507813 -3.66015625 4.00390625 C-3.53008299 0.08609959 -3.53008299 0.08609959 0 0 Z " fill="#3C3072" transform="translate(50.5625,100.9375)"/>
<path d="M0 0 C5.53846154 -0.36923077 5.53846154 -0.36923077 7.875 1.5 C8.24625 1.995 8.6175 2.49 9 3 C8 4 8 4 4.4375 4.0625 C3.303125 4.041875 2.16875 4.02125 1 4 C1.33 3.34 1.66 2.68 2 2 C1.34 1.34 0.68 0.68 0 0 Z " fill="#451F77" transform="translate(106,198)"/>
<path d="M0 0 C1.32 0 2.64 0 4 0 C4 0.99 4 1.98 4 3 C1.29120665 4.35439668 -1.00933268 4.06501451 -4 4 C-3.67 3.34 -3.34 2.68 -3 2 C-2.01 2 -1.02 2 0 2 C0 1.34 0 0.68 0 0 Z " fill="#9B77EC" transform="translate(158,159)"/>
<path d="M0 0 C0.99 0 1.98 0 3 0 C3 2.31 3 4.62 3 7 C3.66 7.33 4.32 7.66 5 8 C3.68 8 2.36 8 1 8 C0.67 5.36 0.34 2.72 0 0 Z " fill="#451F84" transform="translate(148,136)"/>
<path d="M0 0 C2 1 2 1 3 3 C0.23547967 4.38226016 -2.0461363 4.09525387 -5.125 4.0625 C-6.22070312 4.05347656 -7.31640625 4.04445312 -8.4453125 4.03515625 C-9.70988281 4.01775391 -9.70988281 4.01775391 -11 4 C-11 3.67 -11 3.34 -11 3 C-7.7 3 -4.4 3 -1 3 C-0.67 2.01 -0.34 1.02 0 0 Z " fill="#AF73F4" transform="translate(139,162)"/>
<path d="M0 0 C1.98 0 3.96 0 6 0 C6 0.99 6 1.98 6 3 C4.02 3 2.04 3 0 3 C0 2.01 0 1.02 0 0 Z " fill="#6C429F" transform="translate(118,163)"/>
<path d="M0 0 C0.66 0 1.32 0 2 0 C2 3.63 2 7.26 2 11 C-0.52380952 5.95238095 -0.52380952 5.95238095 -1 3 C-0.67 2.01 -0.34 1.02 0 0 Z " fill="#4A59B2" transform="translate(186,128)"/>
<path d="M0 0 C2.3431213 0.25561323 4.67843403 0.59270772 7 1 C7.33 1.66 7.66 2.32 8 3 C5.69 3.33 3.38 3.66 1 4 C0.67 2.68 0.34 1.36 0 0 Z " fill="#119291" transform="translate(155,36)"/>
<path d="M0 0 C3.31467895 1.53406629 5.03944771 2.86311633 7 6 C7 6.66 7 7.32 7 8 C6.34 8 5.68 8 5 8 C3.7109375 6.25 3.7109375 6.25 2.375 4 C1.92898437 3.2575 1.48296875 2.515 1.0234375 1.75 C0.68570313 1.1725 0.34796875 0.595 0 0 Z " fill="#6231CA" transform="translate(34,160)"/>
<path d="M0 0 C0.66 0.66 1.32 1.32 2 2 C0.1875 4 0.1875 4 -2 6 C-2.99 6 -3.98 6 -5 6 C-5 5.34 -5 4.68 -5 4 C-3.37373596 2.61767557 -1.7074998 1.28062485 0 0 Z " fill="#44F1E7" transform="translate(177,44)"/>
</svg>
